<svg version="1.1" xmlns="http://www.w3.org/2000/svg" xmlns:xlink="http://www.w3.org/1999/xlink" width="1525.630859375" height="965"><defs/><g><g transform="translate(-286,-14) scale(1,1)"><rect fill="#C0C0C0" stroke="none" x="439" y="47" width="1216" height="920" opacity="0.2"/></g><g transform="translate(-286,-14) scale(1,1)"><rect fill="#ffffff" stroke="none" x="432" y="40" width="1216" height="920"/></g><g transform="translate(-286,-14) scale(1,1)"><path fill="none" stroke="#000000" d="M 432 40 L 1648 40 L 1648 960 L 432 960 L 432 40 Z Z" stroke-miterlimit="10"/></g><g transform="translate(-286,-14) scale(1,1)"><g><path fill="none" stroke="none"/><text fill="#000000" stroke="none" font-family="Arial" font-size="13px" font-style="normal" font-weight="bold" text-decoration="none" x="1003.510498046875" y="59.5">Bike Rescue</text></g></g><g transform="translate(-286,-14) scale(1,1)"><path fill="#ffffff" stroke="none" d="M 392.40935031960225 217.68 C 392.40935031960225 212.886167936 396.29519264454774 209 401.088623046875 209 C 405.88205344920226 209 409.76789577414775 212.886167936 409.76789577414775 217.68 C 409.76789577414775 222.47383206400002 405.88205344920226 226.36 401.088623046875 226.36 C 396.29519264454774 226.36 392.40935031960225 222.47383206400002 392.40935031960225 217.68 Z"/></g><g transform="translate(-286,-14) scale(1,1)"><path fill="none" stroke="#000000" d="M 392.40935031960225 217.68 C 392.40935031960225 212.886167936 396.29519264454774 209 401.088623046875 209 C 405.88205344920226 209 409.76789577414775 212.886167936 409.76789577414775 217.68 C 409.76789577414775 222.47383206400002 405.88205344920226 226.36 401.088623046875 226.36 C 396.29519264454774 226.36 392.40935031960225 222.47383206400002 392.40935031960225 217.68 Z" stroke-miterlimit="10"/></g><g transform="translate(-286,-14) scale(1,1)"><path fill="none" stroke="#000000" d="M 401.088623046875 226.36 L 401.088623046875 243.64" stroke-miterlimit="10"/></g><g transform="translate(-286,-14) scale(1,1)"><path fill="none" stroke="#000000" d="M 391.89880486505683 232.84 L 410.27844122869317 232.84" stroke-miterlimit="10"/></g><g transform="translate(-286,-14) scale(1,1)"><path fill="none" stroke="#000000" d="M 401.088623046875 243.64 L 388.32498668323865 261" stroke-miterlimit="10"/></g><g transform="translate(-286,-14) scale(1,1)"><path fill="none" stroke="#000000" d="M 401.088623046875 243.64 L 413.85225941051135 261" stroke-miterlimit="10"/></g><g transform="translate(-286,-14) scale(1,1)"><g><path fill="none" stroke="none"/><text fill="#000000" stroke="none" font-family="Arial" font-size="13px" font-style="normal" font-weight="bold" text-decoration="none" x="383.746826171875" y="281.5">Guest</text></g></g><g transform="translate(-286,-14) scale(1,1)"><path fill="#ffffff" stroke="none" d="M 351.41569797585225 409.68 C 351.41569797585225 404.886167936 355.30154030079774 401 360.094970703125 401 C 364.88840110545226 401 368.77424343039775 404.886167936 368.77424343039775 409.68 C 368.77424343039775 414.473832064 364.88840110545226 418.36 360.094970703125 418.36 C 355.30154030079774 418.36 351.41569797585225 414.473832064 351.41569797585225 409.68 Z"/></g><g transform="translate(-286,-14) scale(1,1)"><path fill="none" stroke="#000000" d="M 351.41569797585225 409.68 C 351.41569797585225 404.886167936 355.30154030079774 401 360.094970703125 401 C 364.88840110545226 401 368.77424343039775 404.886167936 368.77424343039775 409.68 C 368.77424343039775 414.473832064 364.88840110545226 418.36 360.094970703125 418.36 C 355.30154030079774 418.36 351.41569797585225 414.473832064 351.41569797585225 409.68 Z" stroke-miterlimit="10"/></g><g transform="translate(-286,-14) scale(1,1)"><path fill="none" stroke="#000000" d="M 360.094970703125 418.36 L 360.094970703125 435.64" stroke-miterlimit="10"/></g><g transform="translate(-286,-14) scale(1,1)"><path fill="none" stroke="#000000" d="M 350.90515252130683 424.84 L 369.28478888494317 424.84" stroke-miterlimit="10"/></g><g transform="translate(-286,-14) scale(1,1)"><path fill="none" stroke="#000000" d="M 360.094970703125 435.64 L 347.33133433948865 453" stroke-miterlimit="10"/></g><g transform="translate(-286,-14) scale(1,1)"><path fill="none" stroke="#000000" d="M 360.094970703125 435.64 L 372.85860706676135 453" stroke-miterlimit="10"/></g><g transform="translate(-286,-14) scale(1,1)"><g><path fill="none" stroke="none"/><text fill="#000000" stroke="none" font-family="Arial" font-size="13px" font-style="normal" font-weight="bold" text-decoration="none" x="304.813232421875" y="473.5">Authenticated User</text></g></g><g transform="translate(-286,-14) scale(1,1)"><path fill="#ffffff" stroke="none" d="M 362.15935031960225 705.6800000000001 C 362.15935031960225 700.8861679360001 366.04519264454774 697 370.838623046875 697 C 375.63205344920226 697 379.51789577414775 700.8861679360001 379.51789577414775 705.6800000000001 C 379.51789577414775 710.473832064 375.63205344920226 714.36 370.838623046875 714.36 C 366.04519264454774 714.36 362.15935031960225 710.473832064 362.15935031960225 705.6800000000001 Z"/></g><g transform="translate(-286,-14) scale(1,1)"><path fill="none" stroke="#000000" d="M 362.15935031960225 705.6800000000001 C 362.15935031960225 700.8861679360001 366.04519264454774 697 370.838623046875 697 C 375.63205344920226 697 379.51789577414775 700.8861679360001 379.51789577414775 705.6800000000001 C 379.51789577414775 710.473832064 375.63205344920226 714.36 370.838623046875 714.36 C 366.04519264454774 714.36 362.15935031960225 710.473832064 362.15935031960225 705.6800000000001 Z" stroke-miterlimit="10"/></g><g transform="translate(-286,-14) scale(1,1)"><path fill="none" stroke="#000000" d="M 370.838623046875 714.36 L 370.838623046875 731.64" stroke-miterlimit="10"/></g><g transform="translate(-286,-14) scale(1,1)"><path fill="none" stroke="#000000" d="M 361.64880486505683 720.84 L 380.02844122869317 720.84" stroke-miterlimit="10"/></g><g transform="translate(-286,-14) scale(1,1)"><path fill="none" stroke="#000000" d="M 370.838623046875 731.64 L 358.07498668323865 749" stroke-miterlimit="10"/></g><g transform="translate(-286,-14) scale(1,1)"><path fill="none" stroke="#000000" d="M 370.838623046875 731.64 L 383.60225941051135 749" stroke-miterlimit="10"/></g><g transform="translate(-286,-14) scale(1,1)"><g><path fill="none" stroke="none"/><text fill="#000000" stroke="none" font-family="Arial" font-size="13px" font-style="normal" font-weight="bold" text-decoration="none" x="342.66455078125" y="769.5">Customer</text></g></g><g transform="translate(-286,-14) scale(1,1)"><path fill="#ffffff" stroke="none" d="M 1728.1361569602273 449.68 C 1728.1361569602273 444.886167936 1732.0219992851728 441 1736.8154296875 441 C 1741.6088600898272 441 1745.4947024147727 444.886167936 1745.4947024147727 449.68 C 1745.4947024147727 454.473832064 1741.6088600898272 458.36 1736.8154296875 458.36 C 1732.0219992851728 458.36 1728.1361569602273 454.473832064 1728.1361569602273 449.68 Z"/></g><g transform="translate(-286,-14) scale(1,1)"><path fill="none" stroke="#000000" d="M 1728.1361569602273 449.68 C 1728.1361569602273 444.886167936 1732.0219992851728 441 1736.8154296875 441 C 1741.6088600898272 441 1745.4947024147727 444.886167936 1745.4947024147727 449.68 C 1745.4947024147727 454.473832064 1741.6088600898272 458.36 1736.8154296875 458.36 C 1732.0219992851728 458.36 1728.1361569602273 454.473832064 1728.1361569602273 449.68 Z" stroke-miterlimit="10"/></g><g transform="translate(-286,-14) scale(1,1)"><path fill="none" stroke="#000000" d="M 1736.8154296875 458.36 L 1736.8154296875 475.64" stroke-miterlimit="10"/></g><g transform="translate(-286,-14) scale(1,1)"><path fill="none" stroke="#000000" d="M 1727.6256115056817 464.84 L 1746.0052478693183 464.84" stroke-miterlimit="10"/></g><g transform="translate(-286,-14) scale(1,1)"><path fill="none" stroke="#000000" d="M 1736.8154296875 475.64 L 1724.0517933238636 493" stroke-miterlimit="10"/></g><g transform="translate(-286,-14) scale(1,1)"><path fill="none" stroke="#000000" d="M 1736.8154296875 475.64 L 1749.5790660511364 493" stroke-miterlimit="10"/></g><g transform="translate(-286,-14) scale(1,1)"><g><path fill="none" stroke="none"/><text fill="#000000" stroke="none" font-family="Arial" font-size="13px" font-style="normal" font-weight="bold" text-decoration="none" x="1679.73095703125" y="513.5">Repair Shop Owner</text></g></g><g transform="translate(-286,-14) scale(1,1)"><path fill="#ffffff" stroke="none" d="M 1712.4093503196023 273.68 C 1712.4093503196023 268.886167936 1716.2951926445478 265 1721.088623046875 265 C 1725.8820534492022 265 1729.7678957741477 268.886167936 1729.7678957741477 273.68 C 1729.7678957741477 278.473832064 1725.8820534492022 282.36 1721.088623046875 282.36 C 1716.2951926445478 282.36 1712.4093503196023 278.473832064 1712.4093503196023 273.68 Z"/></g><g transform="translate(-286,-14) scale(1,1)"><path fill="none" stroke="#000000" d="M 1712.4093503196023 273.68 C 1712.4093503196023 268.886167936 1716.2951926445478 265 1721.088623046875 265 C 1725.8820534492022 265 1729.7678957741477 268.886167936 1729.7678957741477 273.68 C 1729.7678957741477 278.473832064 1725.8820534492022 282.36 1721.088623046875 282.36 C 1716.2951926445478 282.36 1712.4093503196023 278.473832064 1712.4093503196023 273.68 Z" stroke-miterlimit="10"/></g><g transform="translate(-286,-14) scale(1,1)"><path fill="none" stroke="#000000" d="M 1721.088623046875 282.36 L 1721.088623046875 299.64" stroke-miterlimit="10"/></g><g transform="translate(-286,-14) scale(1,1)"><path fill="none" stroke="#000000" d="M 1711.8988048650567 288.84 L 1730.2784412286933 288.84" stroke-miterlimit="10"/></g><g transform="translate(-286,-14) scale(1,1)"><path fill="none" stroke="#000000" d="M 1721.088623046875 299.64 L 1708.3249866832386 317" stroke-miterlimit="10"/></g><g transform="translate(-286,-14) scale(1,1)"><path fill="none" stroke="#000000" d="M 1721.088623046875 299.64 L 1733.8522594105114 317" stroke-miterlimit="10"/></g><g transform="translate(-286,-14) scale(1,1)"><g><path fill="none" stroke="none"/><text fill="#000000" stroke="none" font-family="Arial" font-size="13px" font-style="normal" font-weight="bold" text-decoration="none" x="1702.66455078125" y="337.5">Admin</text></g></g><g transform="translate(-286,-14) scale(1,1)"><path fill="none" stroke="#000000" d="M 1721 263 L 1720 32 L 344 32 L 344 280 L 356 399" stroke-miterlimit="10"/></g><g transform="translate(-286,-14) scale(1,1)"><path fill="#FFFFFF" stroke="none" d="M 345.58417353064607 379.62190517722894 L 356 399 L 362.33728072751484 377.93251621620016"/></g><g transform="translate(-286,-14) scale(1,1)"><path fill="none" stroke="#000000" d="M 345.58417353064607 379.62190517722894 L 356 399 L 362.33728072751484 377.93251621620016 L 345.58417353064607 379.62190517722894" stroke-miterlimit="10"/></g><g transform="translate(-286,-14) scale(1,1)"><path fill="none" stroke="#000000" d="M 368 695 L 360 552 L 360 480" stroke-miterlimit="10"/></g><g transform="translate(-286,-14) scale(1,1)"><path fill="#FFFFFF" stroke="none" d="M 368.419035512032 500.3253497152483 L 360 480 L 351.580964487968 500.3253497152483"/></g><g transform="translate(-286,-14) scale(1,1)"><path fill="none" stroke="#000000" d="M 368.419035512032 500.3253497152483 L 360 480 L 351.580964487968 500.3253497152483 L 368.419035512032 500.3253497152483" stroke-miterlimit="10"/></g><g transform="translate(-286,-14) scale(1,1)"><path fill="none" stroke="#000000" d="M 1748 439 L 1768 368 L 1768 24 L 312 24 L 312 280 L 348 399" stroke-miterlimit="10"/></g><g transform="translate(-286,-14) scale(1,1)"><path fill="#FFFFFF" stroke="none" d="M 334.0562130882179 381.98321985336787 L 348 399 L 350.17293435490285 377.10757308361445"/></g><g transform="translate(-286,-14) scale(1,1)"><path fill="none" stroke="#000000" d="M 334.0562130882179 381.98321985336787 L 348 399 L 350.17293435490285 377.10757308361445 L 334.0562130882179 381.98321985336787" stroke-miterlimit="10"/></g><g transform="translate(-286,-14) scale(1,1)"><path fill="#C0C0C0" stroke="none" d="M 487 280 C 487 270.6111584 529.0852288 263 581 263 C 632.9147712 263 675 270.6111584 675 280 C 675 289.3888416 632.9147712 297 581 297 C 529.0852288 297 487 289.3888416 487 280 Z" opacity="0.2"/></g><g transform="translate(-286,-14) scale(1,1)"><path fill="#ffffff" stroke="none" d="M 480 273 C 480 263.6111584 522.0852288 256 574 256 C 625.9147712 256 668 263.6111584 668 273 C 668 282.3888416 625.9147712 290 574 290 C 522.0852288 290 480 282.3888416 480 273 Z"/></g><g transform="translate(-286,-14) scale(1,1)"><path fill="none" stroke="#000000" d="M 480 273 C 480 263.6111584 522.0852288 256 574 256 C 625.9147712 256 668 263.6111584 668 273 C 668 282.3888416 625.9147712 290 574 290 C 522.0852288 290 480 282.3888416 480 273 Z" stroke-miterlimit="10"/></g><g transform="translate(-286,-14) scale(1,1)"><g><path fill="none" stroke="none"/><text fill="#000000" stroke="none" font-family="Arial" font-size="13px" font-style="normal" font-weight="bold" text-decoration="none" x="516.188720703125" y="280">Register an account</text></g></g><g transform="translate(-286,-14) scale(1,1)"><path fill="#C0C0C0" stroke="none" d="M 519 176 C 519 166.6111584 543.8481936 159 574.5 159 C 605.1518064 159 630 166.6111584 630 176 C 630 185.3888416 605.1518064 193 574.5 193 C 543.8481936 193 519 185.3888416 519 176 Z" opacity="0.2"/></g><g transform="translate(-286,-14) scale(1,1)"><path fill="#ffffff" stroke="none" d="M 512 169 C 512 159.6111584 536.8481936 152 567.5 152 C 598.1518064 152 623 159.6111584 623 169 C 623 178.3888416 598.1518064 186 567.5 186 C 536.8481936 186 512 178.3888416 512 169 Z"/></g><g transform="translate(-286,-14) scale(1,1)"><path fill="none" stroke="#000000" d="M 512 169 C 512 159.6111584 536.8481936 152 567.5 152 C 598.1518064 152 623 159.6111584 623 169 C 623 178.3888416 598.1518064 186 567.5 186 C 536.8481936 186 512 178.3888416 512 169 Z" stroke-miterlimit="10"/></g><g transform="translate(-286,-14) scale(1,1)"><g><path fill="none" stroke="none"/><text fill="#000000" stroke="none" font-family="Arial" font-size="13px" font-style="normal" font-weight="bold" text-decoration="none" x="551.595947265625" y="176">Login</text></g></g><g transform="translate(-286,-14) scale(1,1)"><path fill="#C0C0C0" stroke="none" d="M 727 144 C 727 134.6111584 762.3695008 127 806 127 C 849.6304992 127 885 134.6111584 885 144 C 885 153.3888416 849.6304992 161 806 161 C 762.3695008 161 727 153.3888416 727 144 Z" opacity="0.2"/></g><g transform="translate(-286,-14) scale(1,1)"><path fill="#ffffff" stroke="none" d="M 720 137 C 720 127.6111584 755.3695008 120 799 120 C 842.6304992 120 878 127.6111584 878 137 C 878 146.3888416 842.6304992 154 799 154 C 755.3695008 154 720 146.3888416 720 137 Z"/></g><g transform="translate(-286,-14) scale(1,1)"><path fill="none" stroke="#000000" d="M 720 137 C 720 127.6111584 755.3695008 120 799 120 C 842.6304992 120 878 127.6111584 878 137 C 878 146.3888416 842.6304992 154 799 154 C 755.3695008 154 720 146.3888416 720 137 Z" stroke-miterlimit="10"/></g><g transform="translate(-286,-14) scale(1,1)"><g><path fill="none" stroke="none"/><text fill="#000000" stroke="none" font-family="Arial" font-size="13px" font-style="normal" font-weight="bold" text-decoration="none" x="752.392333984375" y="144">Login with gmail</text></g></g><g transform="translate(-286,-14) scale(1,1)"><path fill="#C0C0C0" stroke="none" d="M 703 208 C 703 198.6111584 745.532944 191 798 191 C 850.467056 191 893 198.6111584 893 208 C 893 217.3888416 850.467056 225 798 225 C 745.532944 225 703 217.3888416 703 208 Z" opacity="0.2"/></g><g transform="translate(-286,-14) scale(1,1)"><path fill="#ffffff" stroke="none" d="M 696 201 C 696 191.6111584 738.532944 184 791 184 C 843.467056 184 886 191.6111584 886 201 C 886 210.3888416 843.467056 218 791 218 C 738.532944 218 696 210.3888416 696 201 Z"/></g><g transform="translate(-286,-14) scale(1,1)"><path fill="none" stroke="#000000" d="M 696 201 C 696 191.6111584 738.532944 184 791 184 C 843.467056 184 886 191.6111584 886 201 C 886 210.3888416 843.467056 218 791 218 C 738.532944 218 696 210.3888416 696 201 Z" stroke-miterlimit="10"/></g><g transform="translate(-286,-14) scale(1,1)"><g><path fill="none" stroke="none"/><text fill="#000000" stroke="none" font-family="Arial" font-size="13px" font-style="normal" font-weight="bold" text-decoration="none" x="733.544189453125" y="208">Login with facebook</text></g></g><g transform="translate(-286,-14) scale(1,1)"><path fill="#C0C0C0" stroke="none" d="M 991 160 C 991 150.6111584 1031.9659408 143 1082.5 143 C 1133.0340592 143 1174 150.6111584 1174 160 C 1174 169.3888416 1133.0340592 177 1082.5 177 C 1031.9659408 177 991 169.3888416 991 160 Z" opacity="0.2"/></g><g transform="translate(-286,-14) scale(1,1)"><path fill="#ffffff" stroke="none" d="M 984 153 C 984 143.6111584 1024.9659408 136 1075.5 136 C 1126.0340592 136 1167 143.6111584 1167 153 C 1167 162.3888416 1126.0340592 170 1075.5 170 C 1024.9659408 170 984 162.3888416 984 153 Z"/></g><g transform="translate(-286,-14) scale(1,1)"><path fill="none" stroke="#000000" d="M 984 153 C 984 143.6111584 1024.9659408 136 1075.5 136 C 1126.0340592 136 1167 143.6111584 1167 153 C 1167 162.3888416 1126.0340592 170 1075.5 170 C 1024.9659408 170 984 162.3888416 984 153 Z" stroke-miterlimit="10"/></g><g transform="translate(-286,-14) scale(1,1)"><g><path fill="none" stroke="none"/><text fill="#000000" stroke="none" font-family="Arial" font-size="13px" font-style="normal" font-weight="bold" text-decoration="none" x="1019.497802734375" y="160">Disable repair shop</text></g></g><g transform="translate(-286,-14) scale(1,1)"><path fill="none" stroke="#000000" d="M 427 261 L 448 272 L 479 272" stroke-miterlimit="10"/></g><g transform="translate(-286,-14) scale(1,1)"><path fill="none" stroke="#000000" d="M 421 207 L 440 168 L 511 169" stroke-miterlimit="10"/></g><g transform="translate(-286,-14) scale(1,1)"><path fill="#C0C0C0" stroke="none" d="M 479 512 C 479 502.6111584 501.6096176 495 529.5 495 C 557.3903824 495 580 502.6111584 580 512 C 580 521.3888416 557.3903824 529 529.5 529 C 501.6096176 529 479 521.3888416 479 512 Z" opacity="0.2"/></g><g transform="translate(-286,-14) scale(1,1)"><path fill="#ffffff" stroke="none" d="M 472 505 C 472 495.6111584 494.6096176 488 522.5 488 C 550.3903824 488 573 495.6111584 573 505 C 573 514.3888416 550.3903824 522 522.5 522 C 494.6096176 522 472 514.3888416 472 505 Z"/></g><g transform="translate(-286,-14) scale(1,1)"><path fill="none" stroke="#000000" d="M 472 505 C 472 495.6111584 494.6096176 488 522.5 488 C 550.3903824 488 573 495.6111584 573 505 C 573 514.3888416 550.3903824 522 522.5 522 C 494.6096176 522 472 514.3888416 472 505 Z" stroke-miterlimit="10"/></g><g transform="translate(-286,-14) scale(1,1)"><g><path fill="none" stroke="none"/><text fill="#000000" stroke="none" font-family="Arial" font-size="13px" font-style="normal" font-weight="bold" text-decoration="none" x="502.619140625" y="512">Logout</text></g></g><g transform="translate(-286,-14) scale(1,1)"><path fill="#C0C0C0" stroke="none" d="M 487 424 C 487 414.6111584 512.743624 407 544.5 407 C 576.256376 407 602 414.6111584 602 424 C 602 433.3888416 576.256376 441 544.5 441 C 512.743624 441 487 433.3888416 487 424 Z" opacity="0.2"/></g><g transform="translate(-286,-14) scale(1,1)"><path fill="#ffffff" stroke="none" d="M 480 417 C 480 407.6111584 505.743624 400 537.5 400 C 569.256376 400 595 407.6111584 595 417 C 595 426.3888416 569.256376 434 537.5 434 C 505.743624 434 480 426.3888416 480 417 Z"/></g><g transform="translate(-286,-14) scale(1,1)"><path fill="none" stroke="#000000" d="M 480 417 C 480 407.6111584 505.743624 400 537.5 400 C 569.256376 400 595 407.6111584 595 417 C 595 426.3888416 569.256376 434 537.5 434 C 505.743624 434 480 426.3888416 480 417 Z" stroke-miterlimit="10"/></g><g transform="translate(-286,-14) scale(1,1)"><g><path fill="none" stroke="none"/><text fill="#000000" stroke="none" font-family="Arial" font-size="13px" font-style="normal" font-weight="bold" text-decoration="none" x="504.019287109375" y="424">View profile</text></g></g><g transform="translate(-286,-14) scale(1,1)"><path fill="#C0C0C0" stroke="none" d="M 487 336 C 487 326.6111584 511.4004784 319 541.5 319 C 571.5995216 319 596 326.6111584 596 336 C 596 345.3888416 571.5995216 353 541.5 353 C 511.4004784 353 487 345.3888416 487 336 Z" opacity="0.2"/></g><g transform="translate(-286,-14) scale(1,1)"><path fill="#ffffff" stroke="none" d="M 480 329 C 480 319.6111584 504.4004784 312 534.5 312 C 564.5995216 312 589 319.6111584 589 329 C 589 338.3888416 564.5995216 346 534.5 346 C 504.4004784 346 480 338.3888416 480 329 Z"/></g><g transform="translate(-286,-14) scale(1,1)"><path fill="none" stroke="#000000" d="M 480 329 C 480 319.6111584 504.4004784 312 534.5 312 C 564.5995216 312 589 319.6111584 589 329 C 589 338.3888416 564.5995216 346 534.5 346 C 504.4004784 346 480 338.3888416 480 329 Z" stroke-miterlimit="10"/></g><g transform="translate(-286,-14) scale(1,1)"><g><path fill="none" stroke="none"/><text fill="#000000" stroke="none" font-family="Arial" font-size="13px" font-style="normal" font-weight="bold" text-decoration="none" x="503.7900390625" y="336">Edit profile</text></g></g><g transform="translate(-286,-14) scale(1,1)"><path fill="none" stroke="#000000" d="M 416 480 L 448 504 L 471 504" stroke-miterlimit="10"/></g><g transform="translate(-286,-14) scale(1,1)"><path fill="none" stroke="#000000" d="M 479 416 L 448 416 L 425 422" stroke-miterlimit="10"/></g><g transform="translate(-286,-14) scale(1,1)"><path fill="none" stroke="#000000" d="M 535 347 L 536 399" stroke-miterlimit="10" stroke-dasharray="3"/></g><g transform="translate(-286,-14) scale(1,1)"><path fill="none" stroke="#000000" d="M 531.5958604886597 388.92014111385225 L 536 399 L 540.0133396580383 388.7582665144411" stroke-miterlimit="10"/></g><g transform="translate(-286,-14) scale(1,1)"><g><path fill="none" stroke="none"/><text fill="#000000" stroke="none" font-family="Arial" font-size="13px" font-style="normal" font-weight="normal" text-decoration="none" x="470.5" y="371.5">«extend»</text></g></g><g transform="translate(-286,-14) scale(1,1)"><path fill="#C0C0C0" stroke="none" d="M 863 424 C 863 414.6111584 893.220776 407 930.5 407 C 967.779224 407 998 414.6111584 998 424 C 998 433.3888416 967.779224 441 930.5 441 C 893.220776 441 863 433.3888416 863 424 Z" opacity="0.2"/></g><g transform="translate(-286,-14) scale(1,1)"><path fill="#ffffff" stroke="none" d="M 856 417 C 856 407.6111584 886.220776 400 923.5 400 C 960.779224 400 991 407.6111584 991 417 C 991 426.3888416 960.779224 434 923.5 434 C 886.220776 434 856 426.3888416 856 417 Z"/></g><g transform="translate(-286,-14) scale(1,1)"><path fill="none" stroke="#000000" d="M 856 417 C 856 407.6111584 886.220776 400 923.5 400 C 960.779224 400 991 407.6111584 991 417 C 991 426.3888416 960.779224 434 923.5 434 C 886.220776 434 856 426.3888416 856 417 Z" stroke-miterlimit="10"/></g><g transform="translate(-286,-14) scale(1,1)"><g><path fill="none" stroke="none"/><text fill="#000000" stroke="none" font-family="Arial" font-size="13px" font-style="normal" font-weight="bold" text-decoration="none" x="883.030517578125" y="424">Send problem</text></g></g><g transform="translate(-286,-14) scale(1,1)"><path fill="#C0C0C0" stroke="none" d="M 823 784 C 823 774.6111584 845.6096176 767 873.5 767 C 901.3903824 767 924 774.6111584 924 784 C 924 793.3888416 901.3903824 801 873.5 801 C 845.6096176 801 823 793.3888416 823 784 Z" opacity="0.2"/></g><g transform="translate(-286,-14) scale(1,1)"><path fill="#ffffff" stroke="none" d="M 816 777 C 816 767.6111584 838.6096176 760 866.5 760 C 894.3903824 760 917 767.6111584 917 777 C 917 786.3888416 894.3903824 794 866.5 794 C 838.6096176 794 816 786.3888416 816 777 Z"/></g><g transform="translate(-286,-14) scale(1,1)"><path fill="none" stroke="#000000" d="M 816 777 C 816 767.6111584 838.6096176 760 866.5 760 C 894.3903824 760 917 767.6111584 917 777 C 917 786.3888416 894.3903824 794 866.5 794 C 838.6096176 794 816 786.3888416 816 777 Z" stroke-miterlimit="10"/></g><g transform="translate(-286,-14) scale(1,1)"><g><path fill="none" stroke="none"/><text fill="#000000" stroke="none" font-family="Arial" font-size="13px" font-style="normal" font-weight="bold" text-decoration="none" x="855.299560546875" y="784">Pay</text></g></g><g transform="translate(-286,-14) scale(1,1)"><path fill="#C0C0C0" stroke="none" d="M 1055 672 C 1055 662.6111584 1089.0263552 655 1131 655 C 1172.9736448 655 1207 662.6111584 1207 672 C 1207 681.3888416 1172.9736448 689 1131 689 C 1089.0263552 689 1055 681.3888416 1055 672 Z" opacity="0.2"/></g><g transform="translate(-286,-14) scale(1,1)"><path fill="#ffffff" stroke="none" d="M 1048 665 C 1048 655.6111584 1082.0263552 648 1124 648 C 1165.9736448 648 1200 655.6111584 1200 665 C 1200 674.3888416 1165.9736448 682 1124 682 C 1082.0263552 682 1048 674.3888416 1048 665 Z"/></g><g transform="translate(-286,-14) scale(1,1)"><path fill="none" stroke="#000000" d="M 1048 665 C 1048 655.6111584 1082.0263552 648 1124 648 C 1165.9736448 648 1200 655.6111584 1200 665 C 1200 674.3888416 1165.9736448 682 1124 682 C 1082.0263552 682 1048 674.3888416 1048 665 Z" stroke-miterlimit="10"/></g><g transform="translate(-286,-14) scale(1,1)"><g><path fill="none" stroke="none"/><text fill="#000000" stroke="none" font-family="Arial" font-size="13px" font-style="normal" font-weight="bold" text-decoration="none" x="1078.839599609375" y="672">Accept problem</text></g></g><g transform="translate(-286,-14) scale(1,1)"><path fill="#C0C0C0" stroke="none" d="M 711 608 C 711 598.6111584 769.8745488 591 842.5 591 C 915.1254512 591 974 598.6111584 974 608 C 974 617.3888416 915.1254512 625 842.5 625 C 769.8745488 625 711 617.3888416 711 608 Z" opacity="0.2"/></g><g transform="translate(-286,-14) scale(1,1)"><path fill="#ffffff" stroke="none" d="M 704 601 C 704 591.6111584 762.8745488 584 835.5 584 C 908.1254512 584 967 591.6111584 967 601 C 967 610.3888416 908.1254512 618 835.5 618 C 762.8745488 618 704 610.3888416 704 601 Z"/></g><g transform="translate(-286,-14) scale(1,1)"><path fill="none" stroke="#000000" d="M 704 601 C 704 591.6111584 762.8745488 584 835.5 584 C 908.1254512 584 967 591.6111584 967 601 C 967 610.3888416 908.1254512 618 835.5 618 C 762.8745488 618 704 610.3888416 704 601 Z" stroke-miterlimit="10"/></g><g transform="translate(-286,-14) scale(1,1)"><g><path fill="none" stroke="none"/><text fill="#000000" stroke="none" font-family="Arial" font-size="13px" font-style="normal" font-weight="bold" text-decoration="none" x="752.875732421875" y="608">View the nearest repair shop</text></g></g><g transform="translate(-286,-14) scale(1,1)"><path fill="#C0C0C0" stroke="none" d="M 751 320 C 751 310.6111584 788.1603616 303 834 303 C 879.8396384 303 917 310.6111584 917 320 C 917 329.3888416 879.8396384 337 834 337 C 788.1603616 337 751 329.3888416 751 320 Z" opacity="0.2"/></g><g transform="translate(-286,-14) scale(1,1)"><path fill="#ffffff" stroke="none" d="M 744 313 C 744 303.6111584 781.1603616 296 827 296 C 872.8396384 296 910 303.6111584 910 313 C 910 322.3888416 872.8396384 330 827 330 C 781.1603616 330 744 322.3888416 744 313 Z"/></g><g transform="translate(-286,-14) scale(1,1)"><path fill="none" stroke="#000000" d="M 744 313 C 744 303.6111584 781.1603616 296 827 296 C 872.8396384 296 910 303.6111584 910 313 C 910 322.3888416 872.8396384 330 827 330 C 781.1603616 330 744 322.3888416 744 313 Z" stroke-miterlimit="10"/></g><g transform="translate(-286,-14) scale(1,1)"><g><path fill="none" stroke="none"/><text fill="#000000" stroke="none" font-family="Arial" font-size="13px" font-style="normal" font-weight="bold" text-decoration="none" x="776.786865234375" y="320">Disable customer</text></g></g><g transform="translate(-286,-14) scale(1,1)"><path fill="#C0C0C0" stroke="none" d="M 519 888 C 519 878.6111584 568.9202448 871 630.5 871 C 692.0797552 871 742 878.6111584 742 888 C 742 897.3888416 692.0797552 905 630.5 905 C 568.9202448 905 519 897.3888416 519 888 Z" opacity="0.2"/></g><g transform="translate(-286,-14) scale(1,1)"><path fill="#ffffff" stroke="none" d="M 512 881 C 512 871.6111584 561.9202448 864 623.5 864 C 685.0797552 864 735 871.6111584 735 881 C 735 890.3888416 685.0797552 898 623.5 898 C 561.9202448 898 512 890.3888416 512 881 Z"/></g><g transform="translate(-286,-14) scale(1,1)"><path fill="none" stroke="#000000" d="M 512 881 C 512 871.6111584 561.9202448 864 623.5 864 C 685.0797552 864 735 871.6111584 735 881 C 735 890.3888416 685.0797552 898 623.5 898 C 561.9202448 898 512 890.3888416 512 881 Z" stroke-miterlimit="10"/></g><g transform="translate(-286,-14) scale(1,1)"><g><path fill="none" stroke="none"/><text fill="#000000" stroke="none" font-family="Arial" font-size="13px" font-style="normal" font-weight="bold" text-decoration="none" x="555.551513671875" y="888">View customer's history</text></g></g><g transform="translate(-286,-14) scale(1,1)"><path fill="none" stroke="#000000" d="M 397 776 L 464 880 L 511 880" stroke-miterlimit="10"/></g><g transform="translate(-286,-14) scale(1,1)"><path fill="#C0C0C0" stroke="none" d="M 1015 888 C 1015 878.6111584 1078.799416 871 1157.5 871 C 1236.200584 871 1300 878.6111584 1300 888 C 1300 897.3888416 1236.200584 905 1157.5 905 C 1078.799416 905 1015 897.3888416 1015 888 Z" opacity="0.2"/></g><g transform="translate(-286,-14) scale(1,1)"><path fill="#ffffff" stroke="none" d="M 1008 881 C 1008 871.6111584 1071.799416 864 1150.5 864 C 1229.200584 864 1293 871.6111584 1293 881 C 1293 890.3888416 1229.200584 898 1150.5 898 C 1071.799416 898 1008 890.3888416 1008 881 Z"/></g><g transform="translate(-286,-14) scale(1,1)"><path fill="none" stroke="#000000" d="M 1008 881 C 1008 871.6111584 1071.799416 864 1150.5 864 C 1229.200584 864 1293 871.6111584 1293 881 C 1293 890.3888416 1229.200584 898 1150.5 898 C 1071.799416 898 1008 890.3888416 1008 881 Z" stroke-miterlimit="10"/></g><g transform="translate(-286,-14) scale(1,1)"><g><path fill="none" stroke="none"/><text fill="#000000" stroke="none" font-family="Arial" font-size="13px" font-style="normal" font-weight="bold" text-decoration="none" x="1060.525146484375" y="888">Send feedback about customer</text></g></g><g transform="translate(-286,-14) scale(1,1)"><path fill="#C0C0C0" stroke="none" d="M 1223 160 C 1223 150.6111584 1258.5933584 143 1302.5 143 C 1346.4066416 143 1382 150.6111584 1382 160 C 1382 169.3888416 1346.4066416 177 1302.5 177 C 1258.5933584 177 1223 169.3888416 1223 160 Z" opacity="0.2"/></g><g transform="translate(-286,-14) scale(1,1)"><path fill="#ffffff" stroke="none" d="M 1216 153 C 1216 143.6111584 1251.5933584 136 1295.5 136 C 1339.4066416 136 1375 143.6111584 1375 153 C 1375 162.3888416 1339.4066416 170 1295.5 170 C 1251.5933584 170 1216 162.3888416 1216 153 Z"/></g><g transform="translate(-286,-14) scale(1,1)"><path fill="none" stroke="#000000" d="M 1216 153 C 1216 143.6111584 1251.5933584 136 1295.5 136 C 1339.4066416 136 1375 143.6111584 1375 153 C 1375 162.3888416 1339.4066416 170 1295.5 170 C 1251.5933584 170 1216 162.3888416 1216 153 Z" stroke-miterlimit="10"/></g><g transform="translate(-286,-14) scale(1,1)"><g><path fill="none" stroke="none"/><text fill="#000000" stroke="none" font-family="Arial" font-size="13px" font-style="normal" font-weight="bold" text-decoration="none" x="1247.203857421875" y="160">View repair shop</text></g></g><g transform="translate(-286,-14) scale(1,1)"><path fill="#C0C0C0" stroke="none" d="M 895 240 C 895 230.6111584 926.7877792 223 966 223 C 1005.2122208 223 1037 230.6111584 1037 240 C 1037 249.3888416 1005.2122208 257 966 257 C 926.7877792 257 895 249.3888416 895 240 Z" opacity="0.2"/></g><g transform="translate(-286,-14) scale(1,1)"><path fill="#ffffff" stroke="none" d="M 888 233 C 888 223.6111584 919.7877792 216 959 216 C 998.2122208 216 1030 223.6111584 1030 233 C 1030 242.3888416 998.2122208 250 959 250 C 919.7877792 250 888 242.3888416 888 233 Z"/></g><g transform="translate(-286,-14) scale(1,1)"><path fill="none" stroke="#000000" d="M 888 233 C 888 223.6111584 919.7877792 216 959 216 C 998.2122208 216 1030 223.6111584 1030 233 C 1030 242.3888416 998.2122208 250 959 250 C 919.7877792 250 888 242.3888416 888 233 Z" stroke-miterlimit="10"/></g><g transform="translate(-286,-14) scale(1,1)"><g><path fill="none" stroke="none"/><text fill="#000000" stroke="none" font-family="Arial" font-size="13px" font-style="normal" font-weight="bold" text-decoration="none" x="916.492919921875" y="240">View customer</text></g></g><g transform="translate(-286,-14) scale(1,1)"><path fill="none" stroke="#000000" d="M 1168 153 L 1215 153" stroke-miterlimit="10" stroke-dasharray="3"/></g><g transform="translate(-286,-14) scale(1,1)"><path fill="none" stroke="#000000" d="M 1204.837325142376 157.209517756016 L 1215 153 L 1204.837325142376 148.790482243984" stroke-miterlimit="10"/></g><g transform="translate(-286,-14) scale(1,1)"><g><path fill="none" stroke="none"/><text fill="#000000" stroke="none" font-family="Arial" font-size="13px" font-style="normal" font-weight="normal" text-decoration="none" x="1156.5" y="139.5">«extend»</text></g></g><g transform="translate(-286,-14) scale(1,1)"><path fill="none" stroke="#000000" d="M 857 295 L 929 251" stroke-miterlimit="10" stroke-dasharray="3"/></g><g transform="translate(-286,-14) scale(1,1)"><path fill="none" stroke="#000000" d="M 922.523427236349 259.8912319302296 L 929 251 L 918.1333210890066 252.707421870942" stroke-miterlimit="10"/></g><g transform="translate(-286,-14) scale(1,1)"><g><path fill="none" stroke="none"/><text fill="#000000" stroke="none" font-family="Arial" font-size="13px" font-style="normal" font-weight="normal" text-decoration="none" x="825.5" y="274.5">«extend»</text></g></g><g transform="translate(-286,-14) scale(1,1)"><path fill="#ffffff" stroke="none" d="M 1720.4093503196023 801.6800000000001 C 1720.4093503196023 796.8861679360001 1724.2951926445478 793 1729.088623046875 793 C 1733.8820534492022 793 1737.7678957741477 796.8861679360001 1737.7678957741477 801.6800000000001 C 1737.7678957741477 806.473832064 1733.8820534492022 810.36 1729.088623046875 810.36 C 1724.2951926445478 810.36 1720.4093503196023 806.473832064 1720.4093503196023 801.6800000000001 Z"/></g><g transform="translate(-286,-14) scale(1,1)"><path fill="none" stroke="#000000" d="M 1720.4093503196023 801.6800000000001 C 1720.4093503196023 796.8861679360001 1724.2951926445478 793 1729.088623046875 793 C 1733.8820534492022 793 1737.7678957741477 796.8861679360001 1737.7678957741477 801.6800000000001 C 1737.7678957741477 806.473832064 1733.8820534492022 810.36 1729.088623046875 810.36 C 1724.2951926445478 810.36 1720.4093503196023 806.473832064 1720.4093503196023 801.6800000000001 Z" stroke-miterlimit="10"/></g><g transform="translate(-286,-14) scale(1,1)"><path fill="none" stroke="#000000" d="M 1729.088623046875 810.36 L 1729.088623046875 827.64" stroke-miterlimit="10"/></g><g transform="translate(-286,-14) scale(1,1)"><path fill="none" stroke="#000000" d="M 1719.8988048650567 816.84 L 1738.2784412286933 816.84" stroke-miterlimit="10"/></g><g transform="translate(-286,-14) scale(1,1)"><path fill="none" stroke="#000000" d="M 1729.088623046875 827.64 L 1716.3249866832386 845" stroke-miterlimit="10"/></g><g transform="translate(-286,-14) scale(1,1)"><path fill="none" stroke="#000000" d="M 1729.088623046875 827.64 L 1741.8522594105114 845" stroke-miterlimit="10"/></g><g transform="translate(-286,-14) scale(1,1)"><g><path fill="none" stroke="none"/><text fill="#000000" stroke="none" font-family="Arial" font-size="13px" font-style="normal" font-weight="bold" text-decoration="none" x="1715.837890625" y="865.5">Staff</text></g></g><g transform="translate(-286,-14) scale(1,1)"><path fill="#C0C0C0" stroke="none" d="M 1463 656 C 1463 646.6111584 1501.5035072 639 1549 639 C 1596.4964928 639 1635 646.6111584 1635 656 C 1635 665.3888416 1596.4964928 673 1549 673 C 1501.5035072 673 1463 665.3888416 1463 656 Z" opacity="0.2"/></g><g transform="translate(-286,-14) scale(1,1)"><path fill="#ffffff" stroke="none" d="M 1456 649 C 1456 639.6111584 1494.5035072 632 1542 632 C 1589.4964928 632 1628 639.6111584 1628 649 C 1628 658.3888416 1589.4964928 666 1542 666 C 1494.5035072 666 1456 658.3888416 1456 649 Z"/></g><g transform="translate(-286,-14) scale(1,1)"><path fill="none" stroke="#000000" d="M 1456 649 C 1456 639.6111584 1494.5035072 632 1542 632 C 1589.4964928 632 1628 639.6111584 1628 649 C 1628 658.3888416 1589.4964928 666 1542 666 C 1494.5035072 666 1456 658.3888416 1456 649 Z" stroke-miterlimit="10"/></g><g transform="translate(-286,-14) scale(1,1)"><g><path fill="none" stroke="none"/><text fill="#000000" stroke="none" font-family="Arial" font-size="13px" font-style="normal" font-weight="bold" text-decoration="none" x="1490.701416015625" y="656">Get the list of bills</text></g></g><g transform="translate(-286,-14) scale(1,1)"><path fill="none" stroke="#000000" d="M 1629 648 L 1672 648 L 1720 520" stroke-miterlimit="10"/></g><g transform="translate(-286,-14) scale(1,1)"><path fill="#C0C0C0" stroke="none" d="M 1047 784 C 1047 774.6111584 1080.8024976 767 1122.5 767 C 1164.1975024 767 1198 774.6111584 1198 784 C 1198 793.3888416 1164.1975024 801 1122.5 801 C 1080.8024976 801 1047 793.3888416 1047 784 Z" opacity="0.2"/></g><g transform="translate(-286,-14) scale(1,1)"><path fill="#ffffff" stroke="none" d="M 1040 777 C 1040 767.6111584 1073.8024976 760 1115.5 760 C 1157.1975024 760 1191 767.6111584 1191 777 C 1191 786.3888416 1157.1975024 794 1115.5 794 C 1073.8024976 794 1040 786.3888416 1040 777 Z"/></g><g transform="translate(-286,-14) scale(1,1)"><path fill="none" stroke="#000000" d="M 1040 777 C 1040 767.6111584 1073.8024976 760 1115.5 760 C 1157.1975024 760 1191 767.6111584 1191 777 C 1191 786.3888416 1157.1975024 794 1115.5 794 C 1073.8024976 794 1040 786.3888416 1040 777 Z" stroke-miterlimit="10"/></g><g transform="translate(-286,-14) scale(1,1)"><g><path fill="none" stroke="none"/><text fill="#000000" stroke="none" font-family="Arial" font-size="13px" font-style="normal" font-weight="bold" text-decoration="none" x="1069.977783203125" y="784">Cancel problem</text></g></g><g transform="translate(-286,-14) scale(1,1)"><path fill="#C0C0C0" stroke="none" d="M 1415 400 C 1415 390.6111584 1457.0852288 383 1509 383 C 1560.9147712 383 1603 390.6111584 1603 400 C 1603 409.3888416 1560.9147712 417 1509 417 C 1457.0852288 417 1415 409.3888416 1415 400 Z" opacity="0.2"/></g><g transform="translate(-286,-14) scale(1,1)"><path fill="#ffffff" stroke="none" d="M 1408 393 C 1408 383.6111584 1450.0852288 376 1502 376 C 1553.9147712 376 1596 383.6111584 1596 393 C 1596 402.3888416 1553.9147712 410 1502 410 C 1450.0852288 410 1408 402.3888416 1408 393 Z"/></g><g transform="translate(-286,-14) scale(1,1)"><path fill="none" stroke="#000000" d="M 1408 393 C 1408 383.6111584 1450.0852288 376 1502 376 C 1553.9147712 376 1596 383.6111584 1596 393 C 1596 402.3888416 1553.9147712 410 1502 410 C 1450.0852288 410 1408 402.3888416 1408 393 Z" stroke-miterlimit="10"/></g><g transform="translate(-286,-14) scale(1,1)"><g><path fill="none" stroke="none"/><text fill="#000000" stroke="none" font-family="Arial" font-size="13px" font-style="normal" font-weight="bold" text-decoration="none" x="1444.994873046875" y="400">View staff's account</text></g></g><g transform="translate(-286,-14) scale(1,1)"><path fill="none" stroke="#000000" d="M 1597 392 L 1672 392 L 1707 439" stroke-miterlimit="10"/></g><g transform="translate(-286,-14) scale(1,1)"><path fill="#C0C0C0" stroke="none" d="M 1471 784 C 1471 774.6111584 1506.817216 767 1551 767 C 1595.182784 767 1631 774.6111584 1631 784 C 1631 793.3888416 1595.182784 801 1551 801 C 1506.817216 801 1471 793.3888416 1471 784 Z" opacity="0.2"/></g><g transform="translate(-286,-14) scale(1,1)"><path fill="#ffffff" stroke="none" d="M 1464 777 C 1464 767.6111584 1499.817216 760 1544 760 C 1588.182784 760 1624 767.6111584 1624 777 C 1624 786.3888416 1588.182784 794 1544 794 C 1499.817216 794 1464 786.3888416 1464 777 Z"/></g><g transform="translate(-286,-14) scale(1,1)"><path fill="none" stroke="#000000" d="M 1464 777 C 1464 767.6111584 1499.817216 760 1544 760 C 1588.182784 760 1624 767.6111584 1624 777 C 1624 786.3888416 1588.182784 794 1544 794 C 1499.817216 794 1464 786.3888416 1464 777 Z" stroke-miterlimit="10"/></g><g transform="translate(-286,-14) scale(1,1)"><g><path fill="none" stroke="none"/><text fill="#000000" stroke="none" font-family="Arial" font-size="13px" font-style="normal" font-weight="bold" text-decoration="none" x="1495.227783203125" y="784">Receive problem</text></g></g><g transform="translate(-286,-14) scale(1,1)"><path fill="none" stroke="#000000" d="M 1625 776 L 1688 776 L 1703 796" stroke-miterlimit="10"/></g><g transform="translate(-286,-14) scale(1,1)"><path fill="#C0C0C0" stroke="none" d="M 1479 840 C 1479 830.6111584 1505.6390544 823 1538.5 823 C 1571.3609456 823 1598 830.6111584 1598 840 C 1598 849.3888416 1571.3609456 857 1538.5 857 C 1505.6390544 857 1479 849.3888416 1479 840 Z" opacity="0.2"/></g><g transform="translate(-286,-14) scale(1,1)"><path fill="#ffffff" stroke="none" d="M 1472 833 C 1472 823.6111584 1498.6390544 816 1531.5 816 C 1564.3609456 816 1591 823.6111584 1591 833 C 1591 842.3888416 1564.3609456 850 1531.5 850 C 1498.6390544 850 1472 842.3888416 1472 833 Z"/></g><g transform="translate(-286,-14) scale(1,1)"><path fill="none" stroke="#000000" d="M 1472 833 C 1472 823.6111584 1498.6390544 816 1531.5 816 C 1564.3609456 816 1591 823.6111584 1591 833 C 1591 842.3888416 1564.3609456 850 1531.5 850 C 1498.6390544 850 1472 842.3888416 1472 833 Z" stroke-miterlimit="10"/></g><g transform="translate(-286,-14) scale(1,1)"><g><path fill="none" stroke="none"/><text fill="#000000" stroke="none" font-family="Arial" font-size="13px" font-style="normal" font-weight="bold" text-decoration="none" x="1496.81640625" y="840">Call for help</text></g></g><g transform="translate(-286,-14) scale(1,1)"><path fill="none" stroke="#000000" d="M 1592 832 L 1703 831" stroke-miterlimit="10"/></g><g transform="translate(-286,-14) scale(1,1)"><path fill="#C0C0C0" stroke="none" d="M 735 512 C 735 502.6111584 781.5623808 495 839 495 C 896.4376192 495 943 502.6111584 943 512 C 943 521.3888416 896.4376192 529 839 529 C 781.5623808 529 735 521.3888416 735 512 Z" opacity="0.2"/></g><g transform="translate(-286,-14) scale(1,1)"><path fill="#ffffff" stroke="none" d="M 728 505 C 728 495.6111584 774.5623808 488 832 488 C 889.4376192 488 936 495.6111584 936 505 C 936 514.3888416 889.4376192 522 832 522 C 774.5623808 522 728 514.3888416 728 505 Z"/></g><g transform="translate(-286,-14) scale(1,1)"><path fill="none" stroke="#000000" d="M 728 505 C 728 495.6111584 774.5623808 488 832 488 C 889.4376192 488 936 495.6111584 936 505 C 936 514.3888416 889.4376192 522 832 522 C 774.5623808 522 728 514.3888416 728 505 Z" stroke-miterlimit="10"/></g><g transform="translate(-286,-14) scale(1,1)"><g><path fill="none" stroke="none"/><text fill="#000000" stroke="none" font-family="Arial" font-size="13px" font-style="normal" font-weight="bold" text-decoration="none" x="768.044189453125" y="512">Choose shop to repair</text></g></g><g transform="translate(-286,-14) scale(1,1)"><path fill="#C0C0C0" stroke="none" d="M 559 808 C 559 798.6111584 585.6390544 791 618.5 791 C 651.3609456 791 678 798.6111584 678 808 C 678 817.3888416 651.3609456 825 618.5 825 C 585.6390544 825 559 817.3888416 559 808 Z" opacity="0.2"/></g><g transform="translate(-286,-14) scale(1,1)"><path fill="#ffffff" stroke="none" d="M 552 801 C 552 791.6111584 578.6390544 784 611.5 784 C 644.3609456 784 671 791.6111584 671 801 C 671 810.3888416 644.3609456 818 611.5 818 C 578.6390544 818 552 810.3888416 552 801 Z"/></g><g transform="translate(-286,-14) scale(1,1)"><path fill="none" stroke="#000000" d="M 552 801 C 552 791.6111584 578.6390544 784 611.5 784 C 644.3609456 784 671 791.6111584 671 801 C 671 810.3888416 644.3609456 818 611.5 818 C 578.6390544 818 552 810.3888416 552 801 Z" stroke-miterlimit="10"/></g><g transform="translate(-286,-14) scale(1,1)"><g><path fill="none" stroke="none"/><text fill="#000000" stroke="none" font-family="Arial" font-size="13px" font-style="normal" font-weight="bold" text-decoration="none" x="576.933837890625" y="808">View the bill</text></g></g><g transform="translate(-286,-14) scale(1,1)"><path fill="#C0C0C0" stroke="none" d="M 1487 888 C 1487 878.6111584 1509.8334752 871 1538 871 C 1566.1665248 871 1589 878.6111584 1589 888 C 1589 897.3888416 1566.1665248 905 1538 905 C 1509.8334752 905 1487 897.3888416 1487 888 Z" opacity="0.2"/></g><g transform="translate(-286,-14) scale(1,1)"><path fill="#ffffff" stroke="none" d="M 1480 881 C 1480 871.6111584 1502.8334752 864 1531 864 C 1559.1665248 864 1582 871.6111584 1582 881 C 1582 890.3888416 1559.1665248 898 1531 898 C 1502.8334752 898 1480 890.3888416 1480 881 Z"/></g><g transform="translate(-286,-14) scale(1,1)"><path fill="none" stroke="#000000" d="M 1480 881 C 1480 871.6111584 1502.8334752 864 1531 864 C 1559.1665248 864 1582 871.6111584 1582 881 C 1582 890.3888416 1559.1665248 898 1531 898 C 1502.8334752 898 1480 890.3888416 1480 881 Z" stroke-miterlimit="10"/></g><g transform="translate(-286,-14) scale(1,1)"><g><path fill="none" stroke="none"/><text fill="#000000" stroke="none" font-family="Arial" font-size="13px" font-style="normal" font-weight="bold" text-decoration="none" x="1501.7373046875" y="888">Create bill</text></g></g><g transform="translate(-286,-14) scale(1,1)"><path fill="none" stroke="#000000" d="M 1583 881 L 1672 880 L 1703 853" stroke-miterlimit="10"/></g><g transform="translate(-286,-14) scale(1,1)"><path fill="none" stroke="#000000" d="M 551 801 L 472 800 L 407 758" stroke-miterlimit="10"/></g><g transform="translate(-286,-14) scale(1,1)"><path fill="#C0C0C0" stroke="none" d="M 759 840 C 759 830.6111584 818.5461216 823 892 823 C 965.4538784 823 1025 830.6111584 1025 840 C 1025 849.3888416 965.4538784 857 892 857 C 818.5461216 857 759 849.3888416 759 840 Z" opacity="0.2"/></g><g transform="translate(-286,-14) scale(1,1)"><path fill="#ffffff" stroke="none" d="M 752 833 C 752 823.6111584 811.5461216 816 885 816 C 958.4538784 816 1018 823.6111584 1018 833 C 1018 842.3888416 958.4538784 850 885 850 C 811.5461216 850 752 842.3888416 752 833 Z"/></g><g transform="translate(-286,-14) scale(1,1)"><path fill="none" stroke="#000000" d="M 752 833 C 752 823.6111584 811.5461216 816 885 816 C 958.4538784 816 1018 823.6111584 1018 833 C 1018 842.3888416 958.4538784 850 885 850 C 811.5461216 850 752 842.3888416 752 833 Z" stroke-miterlimit="10"/></g><g transform="translate(-286,-14) scale(1,1)"><g><path fill="none" stroke="none"/><text fill="#000000" stroke="none" font-family="Arial" font-size="13px" font-style="normal" font-weight="bold" text-decoration="none" x="801.16650390625" y="840">Send feedback about service</text></g></g><g transform="translate(-286,-14) scale(1,1)"><path fill="#C0C0C0" stroke="none" d="M 1399 936 C 1399 926.6111584 1448.9202448 919 1510.5 919 C 1572.0797552 919 1622 926.6111584 1622 936 C 1622 945.3888416 1572.0797552 953 1510.5 953 C 1448.9202448 953 1399 945.3888416 1399 936 Z" opacity="0.2"/></g><g transform="translate(-286,-14) scale(1,1)"><path fill="#ffffff" stroke="none" d="M 1392 929 C 1392 919.6111584 1441.9202448 912 1503.5 912 C 1565.0797552 912 1615 919.6111584 1615 929 C 1615 938.3888416 1565.0797552 946 1503.5 946 C 1441.9202448 946 1392 938.3888416 1392 929 Z"/></g><g transform="translate(-286,-14) scale(1,1)"><path fill="none" stroke="#000000" d="M 1392 929 C 1392 919.6111584 1441.9202448 912 1503.5 912 C 1565.0797552 912 1615 919.6111584 1615 929 C 1615 938.3888416 1565.0797552 946 1503.5 946 C 1441.9202448 946 1392 938.3888416 1392 929 Z" stroke-miterlimit="10"/></g><g transform="translate(-286,-14) scale(1,1)"><g><path fill="none" stroke="none"/><text fill="#000000" stroke="none" font-family="Arial" font-size="13px" font-style="normal" font-weight="bold" text-decoration="none" x="1450.1162109375" y="936">View staff's history</text></g></g><g transform="translate(-286,-14) scale(1,1)"><path fill="none" stroke="#000000" d="M 1282 899 L 1391 914" stroke-miterlimit="10" stroke-dasharray="3"/></g><g transform="translate(-286,-14) scale(1,1)"><path fill="none" stroke="#000000" d="M 1380.3583260516396 916.7847397682345 L 1391 914 L 1381.5060918139795 908.4443085618966" stroke-miterlimit="10"/></g><g transform="translate(-286,-14) scale(1,1)"><g><path fill="none" stroke="none"/><text fill="#000000" stroke="none" font-family="Arial" font-size="13px" font-style="normal" font-weight="normal" text-decoration="none" x="1319.5" y="899.5">«extend»</text></g></g><g transform="translate(-286,-14) scale(1,1)"><path fill="none" stroke="#000000" d="M 1616 928 L 1672 928 L 1705 872" stroke-miterlimit="10"/></g><g transform="translate(-286,-14) scale(1,1)"><path fill="#C0C0C0" stroke="none" d="M 1463 448 C 1463 438.6111584 1493.8923488 431 1532 431 C 1570.1076512 431 1601 438.6111584 1601 448 C 1601 457.3888416 1570.1076512 465 1532 465 C 1493.8923488 465 1463 457.3888416 1463 448 Z" opacity="0.2"/></g><g transform="translate(-286,-14) scale(1,1)"><path fill="#ffffff" stroke="none" d="M 1456 441 C 1456 431.6111584 1486.8923488 424 1525 424 C 1563.1076512 424 1594 431.6111584 1594 441 C 1594 450.3888416 1563.1076512 458 1525 458 C 1486.8923488 458 1456 450.3888416 1456 441 Z"/></g><g transform="translate(-286,-14) scale(1,1)"><path fill="none" stroke="#000000" d="M 1456 441 C 1456 431.6111584 1486.8923488 424 1525 424 C 1563.1076512 424 1594 431.6111584 1594 441 C 1594 450.3888416 1563.1076512 458 1525 458 C 1486.8923488 458 1456 450.3888416 1456 441 Z" stroke-miterlimit="10"/></g><g transform="translate(-286,-14) scale(1,1)"><g><path fill="none" stroke="none"/><text fill="#000000" stroke="none" font-family="Arial" font-size="13px" font-style="normal" font-weight="bold" text-decoration="none" x="1483.095947265625" y="448">Create service</text></g></g><g transform="translate(-286,-14) scale(1,1)"><path fill="none" stroke="#000000" d="M 719 148 L 624 161" stroke-miterlimit="10" stroke-dasharray="3"/></g><g transform="translate(-286,-14) scale(1,1)"><path fill="none" stroke="#000000" d="M 633.4981183018546 155.45150932919807 L 624 161 L 634.6395592384278 163.79280848107908" stroke-miterlimit="10"/></g><g transform="translate(-286,-14) scale(1,1)"><g><path fill="none" stroke="none"/><text fill="#000000" stroke="none" font-family="Arial" font-size="13px" font-style="normal" font-weight="normal" text-decoration="none" x="655.5" y="171.5">«extend»</text></g></g><g transform="translate(-286,-14) scale(1,1)"><path fill="none" stroke="#000000" d="M 695 187 L 624 177" stroke-miterlimit="10" stroke-dasharray="3"/></g><g transform="translate(-286,-14) scale(1,1)"><path fill="none" stroke="#000000" d="M 634.6504452259077 174.2489971846726 L 624 177 L 633.4762547876766 182.58574929611393" stroke-miterlimit="10"/></g><g transform="translate(-286,-14) scale(1,1)"><g><path fill="none" stroke="none"/><text fill="#000000" stroke="none" font-family="Arial" font-size="13px" font-style="normal" font-weight="normal" text-decoration="none" x="627.5" y="204.5">«extend»</text></g></g><g transform="translate(-286,-14) scale(1,1)"><path fill="none" stroke="#000000" d="M 815 782 L 672 795" stroke-miterlimit="10" stroke-dasharray="3"/></g><g transform="translate(-286,-14) scale(1,1)"><path fill="none" stroke="#000000" d="M 681.739827019728 789.887684514256 L 672 795 L 682.5020506807682 798.272144785699" stroke-miterlimit="10"/></g><g transform="translate(-286,-14) scale(1,1)"><g><path fill="none" stroke="none"/><text fill="#000000" stroke="none" font-family="Arial" font-size="13px" font-style="normal" font-weight="normal" text-decoration="none" x="711.5" y="779.5">«extend»</text></g></g><g transform="translate(-286,-14) scale(1,1)"><path fill="none" stroke="#000000" d="M 751 817 L 672 808" stroke-miterlimit="10" stroke-dasharray="3"/></g><g transform="translate(-286,-14) scale(1,1)"><path fill="none" stroke="#000000" d="M 682.5738440606851 804.9678684427761 L 672 808 L 681.6208776240823 813.3327960529568" stroke-miterlimit="10"/></g><g transform="translate(-286,-14) scale(1,1)"><g><path fill="none" stroke="none"/><text fill="#000000" stroke="none" font-family="Arial" font-size="13px" font-style="normal" font-weight="normal" text-decoration="none" x="663.5" y="836.5">«extend»</text></g></g><g transform="translate(-286,-14) scale(1,1)"><path fill="none" stroke="#000000" d="M 1187 759 L 1239 746" stroke-miterlimit="10" stroke-dasharray="3"/></g><g transform="translate(-286,-14) scale(1,1)"><path fill="none" stroke="#000000" d="M 1230.1617152255174 752.5486427788625 L 1239 746 L 1228.1197991854035 744.3809786184074" stroke-miterlimit="10"/></g><g transform="translate(-286,-14) scale(1,1)"><g><path fill="none" stroke="none"/><text fill="#000000" stroke="none" font-family="Arial" font-size="13px" font-style="normal" font-weight="normal" text-decoration="none" x="1207.5" y="774.5">«extend»</text></g></g><g transform="translate(-286,-14) scale(1,1)"><path fill="#C0C0C0" stroke="none" d="M 1247 736 C 1247 726.6111584 1276.5492032 719 1313 719 C 1349.4507968 719 1379 726.6111584 1379 736 C 1379 745.3888416 1349.4507968 753 1313 753 C 1276.5492032 753 1247 745.3888416 1247 736 Z" opacity="0.2"/></g><g transform="translate(-286,-14) scale(1,1)"><path fill="#ffffff" stroke="none" d="M 1240 729 C 1240 719.6111584 1269.5492032 712 1306 712 C 1342.4507968 712 1372 719.6111584 1372 729 C 1372 738.3888416 1342.4507968 746 1306 746 C 1269.5492032 746 1240 738.3888416 1240 729 Z"/></g><g transform="translate(-286,-14) scale(1,1)"><path fill="none" stroke="#000000" d="M 1240 729 C 1240 719.6111584 1269.5492032 712 1306 712 C 1342.4507968 712 1372 719.6111584 1372 729 C 1372 738.3888416 1342.4507968 746 1306 746 C 1269.5492032 746 1240 738.3888416 1240 729 Z" stroke-miterlimit="10"/></g><g transform="translate(-286,-14) scale(1,1)"><g><path fill="none" stroke="none"/><text fill="#000000" stroke="none" font-family="Arial" font-size="13px" font-style="normal" font-weight="bold" text-decoration="none" x="1266.73974609375" y="736">View problem</text></g></g><g transform="translate(-286,-14) scale(1,1)"><path fill="#C0C0C0" stroke="none" d="M 1407 352 C 1407 342.6111584 1456.0248144 335 1516.5 335 C 1576.9751856 335 1626 342.6111584 1626 352 C 1626 361.3888416 1576.9751856 369 1516.5 369 C 1456.0248144 369 1407 361.3888416 1407 352 Z" opacity="0.2"/></g><g transform="translate(-286,-14) scale(1,1)"><path fill="#ffffff" stroke="none" d="M 1400 345 C 1400 335.6111584 1449.0248144 328 1509.5 328 C 1569.9751856 328 1619 335.6111584 1619 345 C 1619 354.3888416 1569.9751856 362 1509.5 362 C 1449.0248144 362 1400 354.3888416 1400 345 Z"/></g><g transform="translate(-286,-14) scale(1,1)"><path fill="none" stroke="#000000" d="M 1400 345 C 1400 335.6111584 1449.0248144 328 1509.5 328 C 1569.9751856 328 1619 335.6111584 1619 345 C 1619 354.3888416 1569.9751856 362 1509.5 362 C 1449.0248144 362 1400 354.3888416 1400 345 Z" stroke-miterlimit="10"/></g><g transform="translate(-286,-14) scale(1,1)"><g><path fill="none" stroke="none"/><text fill="#000000" stroke="none" font-family="Arial" font-size="13px" font-style="normal" font-weight="bold" text-decoration="none" x="1442.05615234375" y="352">Create account for staff</text></g></g><g transform="translate(-286,-14) scale(1,1)"><path fill="none" stroke="#000000" d="M 1620 344 L 1688 344 L 1722 439" stroke-miterlimit="10"/></g><g transform="translate(-286,-14) scale(1,1)"><path fill="#C0C0C0" stroke="none" d="M 1327 600 C 1327 590.6111584 1395.276568 583 1479.5 583 C 1563.723432 583 1632 590.6111584 1632 600 C 1632 609.3888416 1563.723432 617 1479.5 617 C 1395.276568 617 1327 609.3888416 1327 600 Z" opacity="0.2"/></g><g transform="translate(-286,-14) scale(1,1)"><path fill="#ffffff" stroke="none" d="M 1320 593 C 1320 583.6111584 1388.276568 576 1472.5 576 C 1556.723432 576 1625 583.6111584 1625 593 C 1625 602.3888416 1556.723432 610 1472.5 610 C 1388.276568 610 1320 602.3888416 1320 593 Z"/></g><g transform="translate(-286,-14) scale(1,1)"><path fill="none" stroke="#000000" d="M 1320 593 C 1320 583.6111584 1388.276568 576 1472.5 576 C 1556.723432 576 1625 583.6111584 1625 593 C 1625 602.3888416 1556.723432 610 1472.5 610 C 1388.276568 610 1320 602.3888416 1320 593 Z" stroke-miterlimit="10"/></g><g transform="translate(-286,-14) scale(1,1)"><g><path fill="none" stroke="none"/><text fill="#000000" stroke="none" font-family="Arial" font-size="13px" font-style="normal" font-weight="bold" text-decoration="none" x="1376.9677734375" y="600">Get the list customer's feedbacks</text></g></g><g transform="translate(-286,-14) scale(1,1)"><path fill="none" stroke="#000000" d="M 1626 580 L 1672 576 L 1709 520" stroke-miterlimit="10"/></g><g transform="translate(-286,-14) scale(1,1)"><path fill="#C0C0C0" stroke="none" d="M 1015 584 C 1015 574.6111584 1071.4121152 567 1141 567 C 1210.5878848 567 1267 574.6111584 1267 584 C 1267 593.3888416 1210.5878848 601 1141 601 C 1071.4121152 601 1015 593.3888416 1015 584 Z" opacity="0.2"/></g><g transform="translate(-286,-14) scale(1,1)"><path fill="#ffffff" stroke="none" d="M 1008 577 C 1008 567.6111584 1064.4121152 560 1134 560 C 1203.5878848 560 1260 567.6111584 1260 577 C 1260 586.3888416 1203.5878848 594 1134 594 C 1064.4121152 594 1008 586.3888416 1008 577 Z"/></g><g transform="translate(-286,-14) scale(1,1)"><path fill="none" stroke="#000000" d="M 1008 577 C 1008 567.6111584 1064.4121152 560 1134 560 C 1203.5878848 560 1260 567.6111584 1260 577 C 1260 586.3888416 1203.5878848 594 1134 594 C 1064.4121152 594 1008 586.3888416 1008 577 Z" stroke-miterlimit="10"/></g><g transform="translate(-286,-14) scale(1,1)"><g><path fill="none" stroke="none"/><text fill="#000000" stroke="none" font-family="Arial" font-size="13px" font-style="normal" font-weight="bold" text-decoration="none" x="1055.565185546875" y="584">View customer's feedbacks</text></g></g><g transform="translate(-286,-14) scale(1,1)"><path fill="none" stroke="#000000" d="M 1261 583 L 1319 586" stroke-miterlimit="10" stroke-dasharray="3"/></g><g transform="translate(-286,-14) scale(1,1)"><path fill="none" stroke="#000000" d="M 1308.6334494670414 589.6789441484773 L 1319 586 L 1309.0683354656371 581.2711481756268" stroke-miterlimit="10"/></g><g transform="translate(-286,-14) scale(1,1)"><g><path fill="none" stroke="none"/><text fill="#000000" stroke="none" font-family="Arial" font-size="13px" font-style="normal" font-weight="normal" text-decoration="none" x="1278.5" y="571.5">«extend»</text></g></g><g transform="translate(-286,-14) scale(1,1)"><path fill="#C0C0C0" stroke="none" d="M 1151 400 C 1151 390.6111584 1198.4578112 383 1257 383 C 1315.5421888 383 1363 390.6111584 1363 400 C 1363 409.3888416 1315.5421888 417 1257 417 C 1198.4578112 417 1151 409.3888416 1151 400 Z" opacity="0.2"/></g><g transform="translate(-286,-14) scale(1,1)"><path fill="#ffffff" stroke="none" d="M 1144 393 C 1144 383.6111584 1191.4578112 376 1250 376 C 1308.5421888 376 1356 383.6111584 1356 393 C 1356 402.3888416 1308.5421888 410 1250 410 C 1191.4578112 410 1144 402.3888416 1144 393 Z"/></g><g transform="translate(-286,-14) scale(1,1)"><path fill="none" stroke="#000000" d="M 1144 393 C 1144 383.6111584 1191.4578112 376 1250 376 C 1308.5421888 376 1356 383.6111584 1356 393 C 1356 402.3888416 1308.5421888 410 1250 410 C 1191.4578112 410 1144 402.3888416 1144 393 Z" stroke-miterlimit="10"/></g><g transform="translate(-286,-14) scale(1,1)"><g><path fill="none" stroke="none"/><text fill="#000000" stroke="none" font-family="Arial" font-size="13px" font-style="normal" font-weight="bold" text-decoration="none" x="1185.288818359375" y="400">Disable staff's account</text></g></g><g transform="translate(-286,-14) scale(1,1)"><path fill="none" stroke="#000000" d="M 1239 411 L 1145 559" stroke-miterlimit="10" stroke-dasharray="3"/></g><g transform="translate(-286,-14) scale(1,1)"><path fill="none" stroke="#000000" d="M 1146.8952038992197 548.1644934506788 L 1145 559 L 1154.0019716874856 552.6782513702532" stroke-miterlimit="10"/></g><g transform="translate(-286,-14) scale(1,1)"><g><path fill="none" stroke="none"/><text fill="#000000" stroke="none" font-family="Arial" font-size="13px" font-style="normal" font-weight="normal" text-decoration="none" x="1199.5" y="485.5">«extend»</text></g></g><g transform="translate(-286,-14) scale(1,1)"><path fill="#C0C0C0" stroke="none" d="M 1279 656 C 1279 646.6111584 1301.6096176 639 1329.5 639 C 1357.3903824 639 1380 646.6111584 1380 656 C 1380 665.3888416 1357.3903824 673 1329.5 673 C 1301.6096176 673 1279 665.3888416 1279 656 Z" opacity="0.2"/></g><g transform="translate(-286,-14) scale(1,1)"><path fill="#ffffff" stroke="none" d="M 1272 649 C 1272 639.6111584 1294.6096176 632 1322.5 632 C 1350.3903824 632 1373 639.6111584 1373 649 C 1373 658.3888416 1350.3903824 666 1322.5 666 C 1294.6096176 666 1272 658.3888416 1272 649 Z"/></g><g transform="translate(-286,-14) scale(1,1)"><path fill="none" stroke="#000000" d="M 1272 649 C 1272 639.6111584 1294.6096176 632 1322.5 632 C 1350.3903824 632 1373 639.6111584 1373 649 C 1373 658.3888416 1350.3903824 666 1322.5 666 C 1294.6096176 666 1272 658.3888416 1272 649 Z" stroke-miterlimit="10"/></g><g transform="translate(-286,-14) scale(1,1)"><g><path fill="none" stroke="none"/><text fill="#000000" stroke="none" font-family="Arial" font-size="13px" font-style="normal" font-weight="bold" text-decoration="none" x="1293.354736328125" y="656">View a bill</text></g></g><g transform="translate(-286,-14) scale(1,1)"><path fill="none" stroke="#000000" d="M 1374 649 L 1455 649" stroke-miterlimit="10" stroke-dasharray="3"/></g><g transform="translate(-286,-14) scale(1,1)"><path fill="none" stroke="#000000" d="M 1444.837325142376 653.209517756016 L 1455 649 L 1444.837325142376 644.790482243984" stroke-miterlimit="10"/></g><g transform="translate(-286,-14) scale(1,1)"><g><path fill="none" stroke="none"/><text fill="#000000" stroke="none" font-family="Arial" font-size="13px" font-style="normal" font-weight="normal" text-decoration="none" x="1383.5" y="635.5">«extend»</text></g></g><g transform="translate(-286,-14) scale(1,1)"><path fill="#C0C0C0" stroke="none" d="M 1367 232 C 1367 222.6111584 1426.5461215999999 215 1500 215 C 1573.4538784000001 215 1633 222.6111584 1633 232 C 1633 241.3888416 1573.4538784000001 249 1500 249 C 1426.5461215999999 249 1367 241.3888416 1367 232 Z" opacity="0.2"/></g><g transform="translate(-286,-14) scale(1,1)"><path fill="#ffffff" stroke="none" d="M 1360 225 C 1360 215.6111584 1419.5461215999999 208 1493 208 C 1566.4538784000001 208 1626 215.6111584 1626 225 C 1626 234.3888416 1566.4538784000001 242 1493 242 C 1419.5461215999999 242 1360 234.3888416 1360 225 Z"/></g><g transform="translate(-286,-14) scale(1,1)"><path fill="none" stroke="#000000" d="M 1360 225 C 1360 215.6111584 1419.5461215999999 208 1493 208 C 1566.4538784000001 208 1626 215.6111584 1626 225 C 1626 234.3888416 1566.4538784000001 242 1493 242 C 1419.5461215999999 242 1360 234.3888416 1360 225 Z" stroke-miterlimit="10"/></g><g transform="translate(-286,-14) scale(1,1)"><g><path fill="none" stroke="none"/><text fill="#000000" stroke="none" font-family="Arial" font-size="13px" font-style="normal" font-weight="bold" text-decoration="none" x="1412.032470703125" y="232">Get the list staff's feedbacks</text></g></g><g transform="translate(-286,-14) scale(1,1)"><path fill="none" stroke="#000000" d="M 1627 224 L 1672 224 L 1696 263" stroke-miterlimit="10"/></g><g transform="translate(-286,-14) scale(1,1)"><path fill="#C0C0C0" stroke="none" d="M 1095 232 C 1095 222.6111584 1141.5623808 215 1199 215 C 1256.4376192 215 1303 222.6111584 1303 232 C 1303 241.3888416 1256.4376192 249 1199 249 C 1141.5623808 249 1095 241.3888416 1095 232 Z" opacity="0.2"/></g><g transform="translate(-286,-14) scale(1,1)"><path fill="#ffffff" stroke="none" d="M 1088 225 C 1088 215.6111584 1134.5623808 208 1192 208 C 1249.4376192 208 1296 215.6111584 1296 225 C 1296 234.3888416 1249.4376192 242 1192 242 C 1134.5623808 242 1088 234.3888416 1088 225 Z"/></g><g transform="translate(-286,-14) scale(1,1)"><path fill="none" stroke="#000000" d="M 1088 225 C 1088 215.6111584 1134.5623808 208 1192 208 C 1249.4376192 208 1296 215.6111584 1296 225 C 1296 234.3888416 1249.4376192 242 1192 242 C 1134.5623808 242 1088 234.3888416 1088 225 Z" stroke-miterlimit="10"/></g><g transform="translate(-286,-14) scale(1,1)"><g><path fill="none" stroke="none"/><text fill="#000000" stroke="none" font-family="Arial" font-size="13px" font-style="normal" font-weight="bold" text-decoration="none" x="1128.1298828125" y="232">View staff's feedbacks</text></g></g><g transform="translate(-286,-14) scale(1,1)"><path fill="none" stroke="#000000" d="M 1297 225 L 1359 225" stroke-miterlimit="10" stroke-dasharray="3"/></g><g transform="translate(-286,-14) scale(1,1)"><path fill="none" stroke="#000000" d="M 1348.837325142376 229.209517756016 L 1359 225 L 1348.837325142376 220.790482243984" stroke-miterlimit="10"/></g><g transform="translate(-286,-14) scale(1,1)"><g><path fill="none" stroke="none"/><text fill="#000000" stroke="none" font-family="Arial" font-size="13px" font-style="normal" font-weight="normal" text-decoration="none" x="1301.5" y="212.5">«extend»</text></g></g><g transform="translate(-286,-14) scale(1,1)"><path fill="none" stroke="#000000" d="M 1031 231 L 1087 229" stroke-miterlimit="10" stroke-dasharray="3"/></g><g transform="translate(-286,-14) scale(1,1)"><path fill="none" stroke="#000000" d="M 1076.99404437791 233.56955709984746 L 1087 229 L 1076.6935561150472 225.15588573968978" stroke-miterlimit="10"/></g><g transform="translate(-286,-14) scale(1,1)"><g><path fill="none" stroke="none"/><text fill="#000000" stroke="none" font-family="Arial" font-size="13px" font-style="normal" font-weight="normal" text-decoration="none" x="1022.5" y="217.5">«extend»</text></g></g><g transform="translate(-286,-14) scale(1,1)"><path fill="#C0C0C0" stroke="none" d="M 1455 136 C 1455 126.6111584 1496.6375136 119 1548 119 C 1599.3624864 119 1641 126.6111584 1641 136 C 1641 145.3888416 1599.3624864 153 1548 153 C 1496.6375136 153 1455 145.3888416 1455 136 Z" opacity="0.2"/></g><g transform="translate(-286,-14) scale(1,1)"><path fill="#ffffff" stroke="none" d="M 1448 129 C 1448 119.6111584 1489.6375136 112 1541 112 C 1592.3624864 112 1634 119.6111584 1634 129 C 1634 138.3888416 1592.3624864 146 1541 146 C 1489.6375136 146 1448 138.3888416 1448 129 Z"/></g><g transform="translate(-286,-14) scale(1,1)"><path fill="none" stroke="#000000" d="M 1448 129 C 1448 119.6111584 1489.6375136 112 1541 112 C 1592.3624864 112 1634 119.6111584 1634 129 C 1634 138.3888416 1592.3624864 146 1541 146 C 1489.6375136 146 1448 138.3888416 1448 129 Z" stroke-miterlimit="10"/></g><g transform="translate(-286,-14) scale(1,1)"><g><path fill="none" stroke="none"/><text fill="#000000" stroke="none" font-family="Arial" font-size="13px" font-style="normal" font-weight="bold" text-decoration="none" x="1483.185546875" y="136">Manage repair shop</text></g></g><g transform="translate(-286,-14) scale(1,1)"><path fill="none" stroke="#000000" d="M 1635 128 L 1680 128 L 1712 263" stroke-miterlimit="10"/></g><g transform="translate(-286,-14) scale(1,1)"><path fill="#C0C0C0" stroke="none" d="M 1063 104 C 1063 94.6111584 1133.515144 87 1220.5 87 C 1307.484856 87 1378 94.6111584 1378 104 C 1378 113.3888416 1307.484856 121 1220.5 121 C 1133.515144 121 1063 113.3888416 1063 104 Z" opacity="0.2"/></g><g transform="translate(-286,-14) scale(1,1)"><path fill="#ffffff" stroke="none" d="M 1056 97 C 1056 87.6111584 1126.515144 80 1213.5 80 C 1300.484856 80 1371 87.6111584 1371 97 C 1371 106.3888416 1300.484856 114 1213.5 114 C 1126.515144 114 1056 106.3888416 1056 97 Z"/></g><g transform="translate(-286,-14) scale(1,1)"><path fill="none" stroke="#000000" d="M 1056 97 C 1056 87.6111584 1126.515144 80 1213.5 80 C 1300.484856 80 1371 87.6111584 1371 97 C 1371 106.3888416 1300.484856 114 1213.5 114 C 1126.515144 114 1056 106.3888416 1056 97 Z" stroke-miterlimit="10"/></g><g transform="translate(-286,-14) scale(1,1)"><g><path fill="none" stroke="none"/><text fill="#000000" stroke="none" font-family="Arial" font-size="13px" font-style="normal" font-weight="bold" text-decoration="none" x="1115.060546875" y="104">Approve the repair shop's account</text></g></g><g transform="translate(-286,-14) scale(1,1)"><path fill="none" stroke="#000000" d="M 1372 113 L 1447 120" stroke-miterlimit="10"/></g><g transform="translate(-286,-14) scale(1,1)"><path fill="#FFFFFF" stroke="none" d="M 1425.9802279041878 126.49378018107454 L 1447 120 L 1427.5449806104828 109.72857261362806"/></g><g transform="translate(-286,-14) scale(1,1)"><path fill="none" stroke="#000000" d="M 1425.9802279041878 126.49378018107454 L 1447 120 L 1427.5449806104828 109.72857261362806 L 1425.9802279041878 126.49378018107454" stroke-miterlimit="10"/></g><g transform="translate(-286,-14) scale(1,1)"><path fill="none" stroke="#000000" d="M 1376 145 L 1447 138" stroke-miterlimit="10"/></g><g transform="translate(-286,-14) scale(1,1)"><path fill="#FFFFFF" stroke="none" d="M 1427.5987608779537 148.3726525310153 L 1447 138 L 1425.9466793098065 131.61582519695202"/></g><g transform="translate(-286,-14) scale(1,1)"><path fill="none" stroke="#000000" d="M 1427.5987608779537 148.3726525310153 L 1447 138 L 1425.9466793098065 131.61582519695202 L 1427.5987608779537 148.3726525310153" stroke-miterlimit="10"/></g><g transform="translate(-286,-14) scale(1,1)"><path fill="none" stroke="#000000" d="M 1722 872 L 1704 968 L 320 968 L 320 536 L 343 480" stroke-miterlimit="10"/></g><g transform="translate(-286,-14) scale(1,1)"><path fill="#FFFFFF" stroke="none" d="M 343.06579112976544 501.9999016253992 L 343 480 L 327.4902417292423 495.6028009787558"/></g><g transform="translate(-286,-14) scale(1,1)"><path fill="none" stroke="#000000" d="M 343.06579112976544 501.9999016253992 L 343 480 L 327.4902417292423 495.6028009787558 L 343.06579112976544 501.9999016253992" stroke-miterlimit="10"/></g><g transform="translate(-286,-14) scale(1,1)"><path fill="none" stroke="#000000" d="M 1175 683 L 1255 711" stroke-miterlimit="10" stroke-dasharray="3"/></g><g transform="translate(-286,-14) scale(1,1)"><path fill="none" stroke="#000000" d="M 1244.0172584340003 711.6159445546971 L 1255 711 L 1246.798490391201 703.6695675341234" stroke-miterlimit="10"/></g><g transform="translate(-286,-14) scale(1,1)"><g><path fill="none" stroke="none"/><text fill="#000000" stroke="none" font-family="Arial" font-size="13px" font-style="normal" font-weight="normal" text-decoration="none" x="1215.5" y="686.5">«extend»</text></g></g><g transform="translate(-286,-14) scale(1,1)"><path fill="none" stroke="#000000" d="M 1373 743 L 1463 761" stroke-miterlimit="10" stroke-dasharray="3"/></g><g transform="translate(-286,-14) scale(1,1)"><path fill="none" stroke="#000000" d="M 1452.2091230681783 763.1347072497838 L 1463 761 L 1453.8602317743891 754.8791637187297" stroke-miterlimit="10"/></g><g transform="translate(-286,-14) scale(1,1)"><g><path fill="none" stroke="none"/><text fill="#000000" stroke="none" font-family="Arial" font-size="13px" font-style="normal" font-weight="normal" text-decoration="none" x="1399.5" y="740.5">«extend»</text></g></g><g transform="translate(-286,-14) scale(1,1)"><path fill="none" stroke="#000000" d="M 1357 393 L 1407 393" stroke-miterlimit="10" stroke-dasharray="3"/></g><g transform="translate(-286,-14) scale(1,1)"><path fill="none" stroke="#000000" d="M 1396.837325142376 397.209517756016 L 1407 393 L 1396.837325142376 388.790482243984" stroke-miterlimit="10"/></g><g transform="translate(-286,-14) scale(1,1)"><g><path fill="none" stroke="none"/><text fill="#000000" stroke="none" font-family="Arial" font-size="13px" font-style="normal" font-weight="normal" text-decoration="none" x="1355.5" y="380.5">«extend»</text></g></g><g transform="translate(-286,-14) scale(1,1)"><path fill="none" stroke="#000000" d="M 833 523 L 834 583" stroke-miterlimit="10" stroke-dasharray="3"/></g><g transform="translate(-286,-14) scale(1,1)"><path fill="none" stroke="#000000" d="M 829.6217123829697 572.9088852180466 L 834 583 L 838.0395788280638 572.7685874439617" stroke-miterlimit="10"/></g><g transform="translate(-286,-14) scale(1,1)"><g><path fill="none" stroke="none"/><text fill="#000000" stroke="none" font-family="Arial" font-size="13px" font-style="normal" font-weight="normal" text-decoration="none" x="767.5" y="555.5">«extend»</text></g></g><g transform="translate(-286,-14) scale(1,1)"><path fill="#C0C0C0" stroke="none" d="M 975 344 C 975 334.6111584 1039.0232736 327 1118 327 C 1196.9767264 327 1261 334.6111584 1261 344 C 1261 353.3888416 1196.9767264 361 1118 361 C 1039.0232736 361 975 353.3888416 975 344 Z" opacity="0.2"/></g><g transform="translate(-286,-14) scale(1,1)"><path fill="#ffffff" stroke="none" d="M 968 337 C 968 327.6111584 1032.0232736 320 1111 320 C 1189.9767264 320 1254 327.6111584 1254 337 C 1254 346.3888416 1189.9767264 354 1111 354 C 1032.0232736 354 968 346.3888416 968 337 Z"/></g><g transform="translate(-286,-14) scale(1,1)"><path fill="none" stroke="#000000" d="M 968 337 C 968 327.6111584 1032.0232736 320 1111 320 C 1189.9767264 320 1254 327.6111584 1254 337 C 1254 346.3888416 1189.9767264 354 1111 354 C 1032.0232736 354 968 346.3888416 968 337 Z" stroke-miterlimit="10"/></g><g transform="translate(-286,-14) scale(1,1)"><g><path fill="none" stroke="none"/><text fill="#000000" stroke="none" font-family="Arial" font-size="13px" font-style="normal" font-weight="bold" text-decoration="none" x="1022.60888671875" y="344">Receive notifications from staff</text></g></g><g transform="translate(-286,-14) scale(1,1)"><path fill="#C0C0C0" stroke="none" d="M 1351 304 C 1351 294.6111584 1373.6096176 287 1401.5 287 C 1429.3903824 287 1452 294.6111584 1452 304 C 1452 313.3888416 1429.3903824 321 1401.5 321 C 1373.6096176 321 1351 313.3888416 1351 304 Z" opacity="0.2"/></g><g transform="translate(-286,-14) scale(1,1)"><path fill="#ffffff" stroke="none" d="M 1344 297 C 1344 287.6111584 1366.6096176 280 1394.5 280 C 1422.3903824 280 1445 287.6111584 1445 297 C 1445 306.3888416 1422.3903824 314 1394.5 314 C 1366.6096176 314 1344 306.3888416 1344 297 Z"/></g><g transform="translate(-286,-14) scale(1,1)"><path fill="none" stroke="#000000" d="M 1344 297 C 1344 287.6111584 1366.6096176 280 1394.5 280 C 1422.3903824 280 1445 287.6111584 1445 297 C 1445 306.3888416 1422.3903824 314 1394.5 314 C 1366.6096176 314 1344 306.3888416 1344 297 Z" stroke-miterlimit="10"/></g><g transform="translate(-286,-14) scale(1,1)"><g><path fill="none" stroke="none"/><text fill="#000000" stroke="none" font-family="Arial" font-size="13px" font-style="normal" font-weight="bold" text-decoration="none" x="1366.5576171875" y="304">View staff</text></g></g><g transform="translate(-286,-14) scale(1,1)"><path fill="none" stroke="#000000" d="M 1343 304 L 1238 319" stroke-miterlimit="10" stroke-dasharray="3"/></g><g transform="translate(-286,-14) scale(1,1)"><path fill="none" stroke="#000000" d="M 1247.4652191193873 313.39557076751026 L 1238 319 L 1248.6558505397088 321.7299907097617" stroke-miterlimit="10"/></g><g transform="translate(-286,-14) scale(1,1)"><g><path fill="none" stroke="none"/><text fill="#000000" stroke="none" font-family="Arial" font-size="13px" font-style="normal" font-weight="normal" text-decoration="none" x="1260.5" y="301.5">«extend»</text></g></g><g transform="translate(-286,-14) scale(1,1)"><path fill="#C0C0C0" stroke="none" d="M 1007 472 C 1007 462.6111584 1034.5344848 455 1068.5 455 C 1102.4655152 455 1130 462.6111584 1130 472 C 1130 481.3888416 1102.4655152 489 1068.5 489 C 1034.5344848 489 1007 481.3888416 1007 472 Z" opacity="0.2"/></g><g transform="translate(-286,-14) scale(1,1)"><path fill="#ffffff" stroke="none" d="M 1000 465 C 1000 455.6111584 1027.5344848 448 1061.5 448 C 1095.4655152 448 1123 455.6111584 1123 465 C 1123 474.3888416 1095.4655152 482 1061.5 482 C 1027.5344848 482 1000 474.3888416 1000 465 Z"/></g><g transform="translate(-286,-14) scale(1,1)"><path fill="none" stroke="#000000" d="M 1000 465 C 1000 455.6111584 1027.5344848 448 1061.5 448 C 1095.4655152 448 1123 455.6111584 1123 465 C 1123 474.3888416 1095.4655152 482 1061.5 482 C 1027.5344848 482 1000 474.3888416 1000 465 Z" stroke-miterlimit="10"/></g><g transform="translate(-286,-14) scale(1,1)"><g><path fill="none" stroke="none"/><text fill="#000000" stroke="none" font-family="Arial" font-size="13px" font-style="normal" font-weight="bold" text-decoration="none" x="1025.13427734375" y="472">View service</text></g></g><g transform="translate(-286,-14) scale(1,1)"><path fill="#C0C0C0" stroke="none" d="M 471 472 C 471 462.6111584 503.90706720000003 455 544.5 455 C 585.0929328 455 618 462.6111584 618 472 C 618 481.3888416 585.0929328 489 544.5 489 C 503.90706720000003 489 471 481.3888416 471 472 Z" opacity="0.2"/></g><g transform="translate(-286,-14) scale(1,1)"><path fill="#ffffff" stroke="none" d="M 464 465 C 464 455.6111584 496.90706720000003 448 537.5 448 C 578.0929328 448 611 455.6111584 611 465 C 611 474.3888416 578.0929328 482 537.5 482 C 496.90706720000003 482 464 474.3888416 464 465 Z"/></g><g transform="translate(-286,-14) scale(1,1)"><path fill="none" stroke="#000000" d="M 464 465 C 464 455.6111584 496.90706720000003 448 537.5 448 C 578.0929328 448 611 455.6111584 611 465 C 611 474.3888416 578.0929328 482 537.5 482 C 496.90706720000003 482 464 474.3888416 464 465 Z" stroke-miterlimit="10"/></g><g transform="translate(-286,-14) scale(1,1)"><g><path fill="none" stroke="none"/><text fill="#000000" stroke="none" font-family="Arial" font-size="13px" font-style="normal" font-weight="bold" text-decoration="none" x="494.142333984375" y="472">Get notification</text></g></g><g transform="translate(-286,-14) scale(1,1)"><path fill="none" stroke="#000000" d="M 463 464 L 440 464 L 425 459" stroke-miterlimit="10"/></g><g transform="translate(-286,-14) scale(1,1)"><path fill="#C0C0C0" stroke="none" d="M 511 608 C 511 598.6111584 544.1309248 591 585 591 C 625.8690752 591 659 598.6111584 659 608 C 659 617.3888416 625.8690752 625 585 625 C 544.1309248 625 511 617.3888416 511 608 Z" opacity="0.2"/></g><g transform="translate(-286,-14) scale(1,1)"><path fill="#ffffff" stroke="none" d="M 504 601 C 504 591.6111584 537.1309248 584 578 584 C 618.8690752 584 652 591.6111584 652 601 C 652 610.3888416 618.8690752 618 578 618 C 537.1309248 618 504 610.3888416 504 601 Z"/></g><g transform="translate(-286,-14) scale(1,1)"><path fill="none" stroke="#000000" d="M 504 601 C 504 591.6111584 537.1309248 584 578 584 C 618.8690752 584 652 591.6111584 652 601 C 652 610.3888416 618.8690752 618 578 618 C 537.1309248 618 504 610.3888416 504 601 Z" stroke-miterlimit="10"/></g><g transform="translate(-286,-14) scale(1,1)"><g><path fill="none" stroke="none"/><text fill="#000000" stroke="none" font-family="Arial" font-size="13px" font-style="normal" font-weight="bold" text-decoration="none" x="533.201416015625" y="608">Create problem</text></g></g><g transform="translate(-286,-14) scale(1,1)"><path fill="none" stroke="#000000" d="M 503 600 L 448 600 L 393 695" stroke-miterlimit="10"/></g><g transform="translate(-286,-14) scale(1,1)"><path fill="none" stroke="#000000" d="M 703 601 L 653 601" stroke-miterlimit="10" stroke-dasharray="3"/></g><g transform="translate(-286,-14) scale(1,1)"><path fill="none" stroke="#000000" d="M 663.1626748576241 596.790482243984 L 653 601 L 663.1626748576241 605.209517756016" stroke-miterlimit="10"/></g><g transform="translate(-286,-14) scale(1,1)"><g><path fill="none" stroke="none"/><text fill="#000000" stroke="none" font-family="Arial" font-size="13px" font-style="normal" font-weight="normal" text-decoration="none" x="655.5" y="588.5">«extend»</text></g></g><g transform="translate(-286,-14) scale(1,1)"><path fill="none" stroke="#000000" d="M 1069 355 L 965 399" stroke-miterlimit="10" stroke-dasharray="3"/></g><g transform="translate(-286,-14) scale(1,1)"><path fill="none" stroke="#000000" d="M 972.7192942672486 391.1633874655167 L 965 399 L 975.9996871870106 398.9170434576813" stroke-miterlimit="10"/></g><g transform="translate(-286,-14) scale(1,1)"><g><path fill="none" stroke="none"/><text fill="#000000" stroke="none" font-family="Arial" font-size="13px" font-style="normal" font-weight="normal" text-decoration="none" x="934.5" y="374.5">«extend»</text></g></g><g transform="translate(-286,-14) scale(1,1)"><path fill="none" stroke="#000000" d="M 999 476 L 935 487" stroke-miterlimit="10" stroke-dasharray="3"/></g><g transform="translate(-286,-14) scale(1,1)"><path fill="none" stroke="#000000" d="M 944.302757603305 481.12984659705126 L 935 487 L 945.7288682628621 489.4272177072013" stroke-miterlimit="10"/></g><g transform="translate(-286,-14) scale(1,1)"><g><path fill="none" stroke="none"/><text fill="#000000" stroke="none" font-family="Arial" font-size="13px" font-style="normal" font-weight="normal" text-decoration="none" x="962.5" y="502.5">«extend»</text></g></g><g transform="translate(-286,-14) scale(1,1)"><path fill="none" stroke="#000000" d="M 1059 559 L 908 523" stroke-miterlimit="10" stroke-dasharray="3"/></g><g transform="translate(-286,-14) scale(1,1)"><path fill="none" stroke="#000000" d="M 918.8618430924603 521.2620803716011 L 908 523 L 916.9093776612609 529.4515881524649" stroke-miterlimit="10"/></g><g transform="translate(-286,-14) scale(1,1)"><g><path fill="none" stroke="none"/><text fill="#000000" stroke="none" font-family="Arial" font-size="13px" font-style="normal" font-weight="normal" text-decoration="none" x="926.5" y="565.5">«extend»</text></g></g><g transform="translate(-286,-14) scale(1,1)"><path fill="#C0C0C0" stroke="none" d="M 639 432 C 639 422.6111584 667.6537728 415 703 415 C 738.3462272 415 767 422.6111584 767 432 C 767 441.3888416 738.3462272 449 703 449 C 667.6537728 449 639 441.3888416 639 432 Z" opacity="0.2"/></g><g transform="translate(-286,-14) scale(1,1)"><path fill="#ffffff" stroke="none" d="M 632 425 C 632 415.6111584 660.6537728 408 696 408 C 731.3462272 408 760 415.6111584 760 425 C 760 434.3888416 731.3462272 442 696 442 C 660.6537728 442 632 434.3888416 632 425 Z"/></g><g transform="translate(-286,-14) scale(1,1)"><path fill="none" stroke="#000000" d="M 632 425 C 632 415.6111584 660.6537728 408 696 408 C 731.3462272 408 760 415.6111584 760 425 C 760 434.3888416 731.3462272 442 696 442 C 660.6537728 442 632 434.3888416 632 425 Z" stroke-miterlimit="10"/></g><g transform="translate(-286,-14) scale(1,1)"><g><path fill="none" stroke="none"/><text fill="#000000" stroke="none" font-family="Arial" font-size="13px" font-style="normal" font-weight="bold" text-decoration="none" x="658.06640625" y="432">Register bike</text></g></g><g transform="translate(-286,-14) scale(1,1)"><path fill="none" stroke="#000000" d="M 682 407 L 588 291" stroke-miterlimit="10" stroke-dasharray="3"/></g><g transform="translate(-286,-14) scale(1,1)"><path fill="none" stroke="#000000" d="M 597.6687649219854 296.2454727988414 L 588 291 L 591.1277398554441 301.5459586286248" stroke-miterlimit="10"/></g><g transform="translate(-286,-14) scale(1,1)"><g><path fill="none" stroke="none"/><text fill="#000000" stroke="none" font-family="Arial" font-size="13px" font-style="normal" font-weight="normal" text-decoration="none" x="662.5" y="360.5">«extend»</text></g></g><g transform="translate(-286,-14) scale(1,1)"><path fill="none" stroke="#000000" d="M 388 695 L 448 560 L 552 560 L 677 443" stroke-miterlimit="10"/></g><g transform="translate(-286,-14) scale(1,1)"><path fill="none" stroke="#000000" d="M 684 443 L 590 583" stroke-miterlimit="10" stroke-dasharray="3"/></g><g transform="translate(-286,-14) scale(1,1)"><path fill="none" stroke="#000000" d="M 592.1701918140833 572.2162034751167 L 590 583 L 599.1598529978947 576.909261698533" stroke-miterlimit="10"/></g><g transform="translate(-286,-14) scale(1,1)"><g><path fill="none" stroke="none"/><text fill="#000000" stroke="none" font-family="Arial" font-size="13px" font-style="normal" font-weight="normal" text-decoration="none" x="656.5" y="526.5">«extend»</text></g></g><g transform="translate(-286,-14) scale(1,1)"><path fill="none" stroke="#000000" d="M 904 435 L 851 487" stroke-miterlimit="10" stroke-dasharray="3"/></g><g transform="translate(-286,-14) scale(1,1)"><path fill="none" stroke="#000000" d="M 855.3061098516118 476.877874830558 L 851 487 L 861.2023028239404 482.8874561292775" stroke-miterlimit="10"/></g><g transform="translate(-286,-14) scale(1,1)"><g><path fill="none" stroke="none"/><text fill="#000000" stroke="none" font-family="Arial" font-size="13px" font-style="normal" font-weight="normal" text-decoration="none" x="807.5" y="456.5">«extend»</text></g></g><g transform="translate(-286,-14) scale(1,1)"><path fill="none" stroke="#000000" d="M 787 851 L 721 863" stroke-miterlimit="10" stroke-dasharray="3"/></g><g transform="translate(-286,-14) scale(1,1)"><path fill="none" stroke="#000000" d="M 730.2457285701497 857.0404275986346 L 721 863 L 731.7517714269408 865.3236633109854" stroke-miterlimit="10"/></g><g transform="translate(-286,-14) scale(1,1)"><g><path fill="none" stroke="none"/><text fill="#000000" stroke="none" font-family="Arial" font-size="13px" font-style="normal" font-weight="normal" text-decoration="none" x="757.5" y="878.5">«extend»</text></g></g><g transform="translate(-286,-14) scale(1,1)"><path fill="#C0C0C0" stroke="none" d="M 1455 504 C 1455 494.6111584 1488.57864 487 1530 487 C 1571.42136 487 1605 494.6111584 1605 504 C 1605 513.3888416 1571.42136 521 1530 521 C 1488.57864 521 1455 513.3888416 1455 504 Z" opacity="0.2"/></g><g transform="translate(-286,-14) scale(1,1)"><path fill="#ffffff" stroke="none" d="M 1448 497 C 1448 487.6111584 1481.57864 480 1523 480 C 1564.42136 480 1598 487.6111584 1598 497 C 1598 506.3888416 1564.42136 514 1523 514 C 1481.57864 514 1448 506.3888416 1448 497 Z"/></g><g transform="translate(-286,-14) scale(1,1)"><path fill="none" stroke="#000000" d="M 1448 497 C 1448 487.6111584 1481.57864 480 1523 480 C 1564.42136 480 1598 487.6111584 1598 497 C 1598 506.3888416 1564.42136 514 1523 514 C 1481.57864 514 1448 506.3888416 1448 497 Z" stroke-miterlimit="10"/></g><g transform="translate(-286,-14) scale(1,1)"><g><path fill="none" stroke="none"/><text fill="#000000" stroke="none" font-family="Arial" font-size="13px" font-style="normal" font-weight="bold" text-decoration="none" x="1486.63427734375" y="504">View service</text></g></g><g transform="translate(-286,-14) scale(1,1)"><path fill="#C0C0C0" stroke="none" d="M 1287 464 C 1287 454.6111584 1312.9674816 447 1345 447 C 1377.0325184 447 1403 454.6111584 1403 464 C 1403 473.3888416 1377.0325184 481 1345 481 C 1312.9674816 481 1287 473.3888416 1287 464 Z" opacity="0.2"/></g><g transform="translate(-286,-14) scale(1,1)"><path fill="#ffffff" stroke="none" d="M 1280 457 C 1280 447.6111584 1305.9674816 440 1338 440 C 1370.0325184 440 1396 447.6111584 1396 457 C 1396 466.3888416 1370.0325184 474 1338 474 C 1305.9674816 474 1280 466.3888416 1280 457 Z"/></g><g transform="translate(-286,-14) scale(1,1)"><path fill="none" stroke="#000000" d="M 1280 457 C 1280 447.6111584 1305.9674816 440 1338 440 C 1370.0325184 440 1396 447.6111584 1396 457 C 1396 466.3888416 1370.0325184 474 1338 474 C 1305.9674816 474 1280 466.3888416 1280 457 Z" stroke-miterlimit="10"/></g><g transform="translate(-286,-14) scale(1,1)"><g><path fill="none" stroke="none"/><text fill="#000000" stroke="none" font-family="Arial" font-size="13px" font-style="normal" font-weight="bold" text-decoration="none" x="1304.405029296875" y="464">Edit service</text></g></g><g transform="translate(-286,-14) scale(1,1)"><path fill="#C0C0C0" stroke="none" d="M 1247 528 C 1247 518.6111584 1277.4446336 511 1315 511 C 1352.5553664 511 1383 518.6111584 1383 528 C 1383 537.3888416 1352.5553664 545 1315 545 C 1277.4446336 545 1247 537.3888416 1247 528 Z" opacity="0.2"/></g><g transform="translate(-286,-14) scale(1,1)"><path fill="#ffffff" stroke="none" d="M 1240 521 C 1240 511.6111584 1270.4446336 504 1308 504 C 1345.5553664 504 1376 511.6111584 1376 521 C 1376 530.3888416 1345.5553664 538 1308 538 C 1270.4446336 538 1240 530.3888416 1240 521 Z"/></g><g transform="translate(-286,-14) scale(1,1)"><path fill="none" stroke="#000000" d="M 1240 521 C 1240 511.6111584 1270.4446336 504 1308 504 C 1345.5553664 504 1376 511.6111584 1376 521 C 1376 530.3888416 1345.5553664 538 1308 538 C 1270.4446336 538 1240 530.3888416 1240 521 Z" stroke-miterlimit="10"/></g><g transform="translate(-286,-14) scale(1,1)"><g><path fill="none" stroke="none"/><text fill="#000000" stroke="none" font-family="Arial" font-size="13px" font-style="normal" font-weight="bold" text-decoration="none" x="1266.81640625" y="528">Delete service</text></g></g><g transform="translate(-286,-14) scale(1,1)"><path fill="none" stroke="#000000" d="M 1397 470 L 1447 481" stroke-miterlimit="10" stroke-dasharray="3"/></g><g transform="translate(-286,-14) scale(1,1)"><path fill="none" stroke="#000000" d="M 1436.1702153441183 482.9276317872531 L 1447 481 L 1437.9791443226386 474.7052273394334" stroke-miterlimit="10"/></g><g transform="translate(-286,-14) scale(1,1)"><g><path fill="none" stroke="none"/><text fill="#000000" stroke="none" font-family="Arial" font-size="13px" font-style="normal" font-weight="normal" text-decoration="none" x="1407.5" y="468.5">«extend»</text></g></g><g transform="translate(-286,-14) scale(1,1)"><path fill="none" stroke="#000000" d="M 1377 513 L 1447 505" stroke-miterlimit="10" stroke-dasharray="3"/></g><g transform="translate(-286,-14) scale(1,1)"><path fill="none" stroke="#000000" d="M 1437.3810268789928 510.33623051388724 L 1447 505 L 1436.4250740957405 501.9716436604289" stroke-miterlimit="10"/></g><g transform="translate(-286,-14) scale(1,1)"><g><path fill="none" stroke="none"/><text fill="#000000" stroke="none" font-family="Arial" font-size="13px" font-style="normal" font-weight="normal" text-decoration="none" x="1399.5" y="531.5">«extend»</text></g></g><g transform="translate(-286,-14) scale(1,1)"><path fill="none" stroke="#000000" d="M 1595 440 L 1624 440 L 1671 456" stroke-miterlimit="10"/></g><g transform="translate(-286,-14) scale(1,1)"><path fill="none" stroke="#000000" d="M 1599 496 L 1632 496 L 1671 490" stroke-miterlimit="10"/></g><g transform="translate(-286,-14) scale(1,1)"><path fill="#C0C0C0" stroke="none" d="M 727 728 C 727 718.6111584 760.8024976 711 802.5 711 C 844.1975024 711 878 718.6111584 878 728 C 878 737.3888416 844.1975024 745 802.5 745 C 760.8024976 745 727 737.3888416 727 728 Z" opacity="0.2"/></g><g transform="translate(-286,-14) scale(1,1)"><path fill="#ffffff" stroke="none" d="M 720 721 C 720 711.6111584 753.8024976 704 795.5 704 C 837.1975024 704 871 711.6111584 871 721 C 871 730.3888416 837.1975024 738 795.5 738 C 753.8024976 738 720 730.3888416 720 721 Z"/></g><g transform="translate(-286,-14) scale(1,1)"><path fill="none" stroke="#000000" d="M 720 721 C 720 711.6111584 753.8024976 704 795.5 704 C 837.1975024 704 871 711.6111584 871 721 C 871 730.3888416 837.1975024 738 795.5 738 C 753.8024976 738 720 730.3888416 720 721 Z" stroke-miterlimit="10"/></g><g transform="translate(-286,-14) scale(1,1)"><g><path fill="none" stroke="none"/><text fill="#000000" stroke="none" font-family="Arial" font-size="13px" font-style="normal" font-weight="bold" text-decoration="none" x="749.977783203125" y="728">Cancel problem</text></g></g><g transform="translate(-286,-14) scale(1,1)"><path fill="#C0C0C0" stroke="none" d="M 535 696 C 535 686.6111584 564.5492032 679 601 679 C 637.4507968 679 667 686.6111584 667 696 C 667 705.3888416 637.4507968 713 601 713 C 564.5492032 713 535 705.3888416 535 696 Z" opacity="0.2"/></g><g transform="translate(-286,-14) scale(1,1)"><path fill="#ffffff" stroke="none" d="M 528 689 C 528 679.6111584 557.5492032 672 594 672 C 630.4507968 672 660 679.6111584 660 689 C 660 698.3888416 630.4507968 706 594 706 C 557.5492032 706 528 698.3888416 528 689 Z"/></g><g transform="translate(-286,-14) scale(1,1)"><path fill="none" stroke="#000000" d="M 528 689 C 528 679.6111584 557.5492032 672 594 672 C 630.4507968 672 660 679.6111584 660 689 C 660 698.3888416 630.4507968 706 594 706 C 557.5492032 706 528 698.3888416 528 689 Z" stroke-miterlimit="10"/></g><g transform="translate(-286,-14) scale(1,1)"><g><path fill="none" stroke="none"/><text fill="#000000" stroke="none" font-family="Arial" font-size="13px" font-style="normal" font-weight="bold" text-decoration="none" x="554.73974609375" y="696">View problem</text></g></g><g transform="translate(-286,-14) scale(1,1)"><path fill="#C0C0C0" stroke="none" d="M 735 664 C 735 654.6111584 762.9822 647 797.5 647 C 832.0178 647 860 654.6111584 860 664 C 860 673.3888416 832.0178 681 797.5 681 C 762.9822 681 735 673.3888416 735 664 Z" opacity="0.2"/></g><g transform="translate(-286,-14) scale(1,1)"><path fill="#ffffff" stroke="none" d="M 728 657 C 728 647.6111584 755.9822 640 790.5 640 C 825.0178 640 853 647.6111584 853 657 C 853 666.3888416 825.0178 674 790.5 674 C 755.9822 674 728 666.3888416 728 657 Z"/></g><g transform="translate(-286,-14) scale(1,1)"><path fill="none" stroke="#000000" d="M 728 657 C 728 647.6111584 755.9822 640 790.5 640 C 825.0178 640 853 647.6111584 853 657 C 853 666.3888416 825.0178 674 790.5 674 C 755.9822 674 728 666.3888416 728 657 Z" stroke-miterlimit="10"/></g><g transform="translate(-286,-14) scale(1,1)"><g><path fill="none" stroke="none"/><text fill="#000000" stroke="none" font-family="Arial" font-size="13px" font-style="normal" font-weight="bold" text-decoration="none" x="754.010498046875" y="664">Edit problem</text></g></g><g transform="translate(-286,-14) scale(1,1)"><path fill="none" stroke="#000000" d="M 407 717 L 464 688 L 527 688" stroke-miterlimit="10"/></g><g transform="translate(-286,-14) scale(1,1)"><path fill="none" stroke="#000000" d="M 727 667 L 661 678" stroke-miterlimit="10" stroke-dasharray="3"/></g><g transform="translate(-286,-14) scale(1,1)"><path fill="none" stroke="#000000" d="M 670.3323602733092 672.1770238082953 L 661 678 L 671.7164411855751 680.4815092818907" stroke-miterlimit="10"/></g><g transform="translate(-286,-14) scale(1,1)"><g><path fill="none" stroke="none"/><text fill="#000000" stroke="none" font-family="Arial" font-size="13px" font-style="normal" font-weight="normal" text-decoration="none" x="655.5" y="659.5">«extend»</text></g></g><g transform="translate(-286,-14) scale(1,1)"><path fill="none" stroke="#000000" d="M 719 709 L 661 700" stroke-miterlimit="10" stroke-dasharray="3"/></g><g transform="translate(-286,-14) scale(1,1)"><path fill="none" stroke="#000000" d="M 671.6879662952149 697.3985818343926 L 661 700 L 670.3970138700424 705.7180530188368" stroke-miterlimit="10"/></g><g transform="translate(-286,-14) scale(1,1)"><g><path fill="none" stroke="none"/><text fill="#000000" stroke="none" font-family="Arial" font-size="13px" font-style="normal" font-weight="normal" text-decoration="none" x="655.5" y="732.5">«extend»</text></g></g></g></svg>